<?xml version="1.0" standalone="no"?>
<!DOCTYPE svg PUBLIC "-//W3C//DTD SVG 20010904//EN"
 "http://www.w3.org/TR/2001/REC-SVG-20010904/DTD/svg10.dtd">
<svg version="1.0" xmlns="http://www.w3.org/2000/svg"
 width="266.000000pt" height="266.000000pt" viewBox="0 0 266.000000 266.000000"
 preserveAspectRatio="xMidYMid meet">
<metadata>
Created by potrace 1.11, written by Peter Selinger 2001-2013
</metadata>
<g transform="translate(0.000000,266.000000) scale(0.100000,-0.100000)"
fill="#000000" stroke="none">
<path d="M847 1812 l-477 -477 88 -88 87 -87 375 375 375 375 322 -322 323
-323 -92 -92 c-51 -51 -97 -93 -103 -93 -5 0 -110 100 -232 222 l-223 223
-278 -278 -277 -277 295 -295 295 -295 478 478 477 477 -478 478 -477 477
-478 -478z m561 -765 l92 -92 -95 -95 -95 -95 -97 98 -98 97 90 90 c49 49 94
90 100 90 6 0 52 -42 103 -93z"/>
</g>
</svg>
