<?xml version="1.0" standalone="no"?>
<!DOCTYPE svg PUBLIC "-//W3C//DTD SVG 20010904//EN"
 "http://www.w3.org/TR/2001/REC-SVG-20010904/DTD/svg10.dtd">
<svg version="1.0" xmlns="http://www.w3.org/2000/svg"
 width="700.000000pt" height="700.000000pt" viewBox="0 0 700.000000 700.000000"
 preserveAspectRatio="xMidYMid meet">
<metadata>
Created by potrace 1.11, written by Peter Selinger 2001-2013
</metadata>
<g transform="translate(0.000000,700.000000) scale(0.100000,-0.100000)"
fill="#000000" stroke="none">
<path d="M1750 5245 l-1725 -1725 1730 -1730 1730 -1730 1727 1727 1728 1728
-1727 1727 c-951 951 -1730 1728 -1733 1728 -3 0 -781 -776 -1730 -1725z
m2970 -490 l1235 -1235 -1238 -1237 -1237 -1238 -742 743 -743 742 742 742
743 743 495 -495 495 -495 247 248 248 247 -743 742 -742 743 -990 -990 -990
-990 -247 248 -248 247 1235 1235 c679 679 1237 1235 1240 1235 3 0 561 -556
1240 -1235z"/>
<path d="M3230 2775 l-245 -245 248 -248 247 -247 247 247 248 248 -245 245
c-135 135 -247 245 -250 245 -3 0 -115 -110 -250 -245z"/>
</g>
</svg>
