<?xml version="1.0" standalone="no"?>
<!DOCTYPE svg PUBLIC "-//W3C//DTD SVG 20010904//EN"
 "http://www.w3.org/TR/2001/REC-SVG-20010904/DTD/svg10.dtd">
<svg version="1.0" xmlns="http://www.w3.org/2000/svg"
 width="700.000000pt" height="700.000000pt" viewBox="0 0 700.000000 700.000000"
 preserveAspectRatio="xMidYMid meet">
<metadata>
Created by potrace 1.11, written by Peter Selinger 2001-2013
</metadata>
<g transform="translate(0.000000,700.000000) scale(0.100000,-0.100000)"
fill="#444" stroke="none">
<path d="M1742 5252 l-1742 -1746 1742 -1743 c959 -958 1747 -1741 1751 -1740
11 3 3487 3479 3487 3487 0 7 -3485 3490 -3491 3489 -2 -1 -788 -787 -1747
-1747z m2995 -494 c684 -684 1243 -1246 1243 -1250 0 -9 -2479 -2488 -2488
-2488 -4 0 -342 335 -752 745 l-745 745 748 748 748 749 500 -500 500 -499
243 244 c133 133 243 248 244 253 2 8 -1380 1400 -1470 1482 -16 15 -88 -54
-1015 -981 l-997 -997 -247 247 c-137 137 -246 251 -244 254 10 14 2481 2488
2485 2489 3 1 564 -558 1247 -1241z"/>
<path d="M3245 2760 c-137 -137 -247 -252 -245 -254 3 -3 115 -116 249 -250
l244 -245 249 250 250 249 -128 128 c-70 70 -182 182 -249 249 l-122 122 -248
-249z"/>
</g>
</svg>
