<svg width="48" height="48" viewBox="0 0 48 48" fill="none" xmlns="http://www.w3.org/2000/svg">
<path fill-rule="evenodd" clip-rule="evenodd" d="M24 48C37.2548 48 48 37.2548 48 24C48 10.7452 37.2548 0 24 0C10.7452 0 0 10.7452 0 24C0 37.2548 10.7452 48 24 48ZM17.16 40.296C19.336 41.192 21.768 41.64 24.456 41.64C28.2107 41.64 31.432 40.8293 34.12 39.208C36.8507 37.544 38.8347 35.432 40.072 32.872L32.712 30.824C32.1573 32.1893 31.112 33.2987 29.576 34.152C28.0827 34.9627 26.4827 35.368 24.776 35.368C23.6667 35.368 22.6 35.176 21.576 34.792C20.552 34.408 19.6347 33.8533 18.824 33.128C18.0133 32.4027 17.352 31.528 16.84 30.504C16.328 29.48 16.008 28.3067 15.88 26.984H41.8C41.8853 26.6427 41.928 26.216 41.928 25.704C41.9707 25.192 41.992 24.6587 41.992 24.104C41.992 21.8427 41.5867 19.6667 40.776 17.576C40.008 15.4853 38.856 13.6507 37.32 12.072C35.8267 10.4933 33.992 9.23466 31.816 8.296C29.6827 7.35733 27.2507 6.888 24.52 6.888C21.7893 6.888 19.3147 7.35733 17.096 8.296C14.92 9.23466 13.064 10.5147 11.528 12.136C9.992 13.7147 8.81866 15.5707 8.008 17.704C7.19733 19.7947 6.79199 22.0347 6.79199 24.424C6.79199 26.728 7.19733 28.9253 8.008 31.016C8.86133 33.1067 10.056 34.9413 11.592 36.52C13.128 38.0987 14.984 39.3573 17.16 40.296ZM24.392 13.096C26.7387 13.096 28.7227 13.864 30.344 15.4C32.008 16.8933 32.9467 18.8987 33.16 21.416H15.752C15.8373 20.1787 16.1147 19.048 16.584 18.024C17.096 17 17.736 16.1253 18.504 15.4C19.272 14.6747 20.1467 14.12 21.128 13.736C22.152 13.3093 23.24 13.096 24.392 13.096Z" fill="white"/>
</svg>
