<?xml version="1.0" standalone="no"?>
<!DOCTYPE svg PUBLIC "-//W3C//DTD SVG 20010904//EN"
 "http://www.w3.org/TR/2001/REC-SVG-20010904/DTD/svg10.dtd">
<svg version="1.0" xmlns="http://www.w3.org/2000/svg"
 width="400.000000pt" height="400.000000pt" viewBox="0 0 400.000000 400.000000"
 preserveAspectRatio="xMidYMid meet">
<metadata>
Created by potrace 1.11, written by Peter Selinger 2001-2013
</metadata>
<g transform="translate(0.000000,400.000000) scale(0.100000,-0.100000)"
fill="#ffffff" stroke="none">
<path d="M876 3905 c-21 -7 -51 -26 -67 -41 -25 -24 -86 -116 -98 -149 -2 -5
-41 -73 -87 -150 -45 -77 -88 -160 -95 -185 -15 -56 -5 -116 21 -133 11 -6 20
-14 20 -17 0 -3 -34 -4 -75 -3 -48 1 -75 -2 -75 -9 0 -7 -4 -7 -12 0 -10 7
-63 9 -63 2 0 -1 -10 -3 -22 -6 -103 -19 -227 -124 -283 -239 -32 -66 -34 -76
-36 -185 -1 -63 1 -119 4 -125 3 -5 7 -16 8 -25 2 -19 27 -83 35 -90 3 -3 18
-23 35 -45 37 -50 64 -81 64 -72 0 4 9 -1 19 -10 41 -37 87 -63 125 -70 11 -2
22 -5 24 -8 2 -2 5 -424 7 -937 l2 -933 25 -66 c59 -152 129 -221 293 -289 44
-18 775 -34 775 -17 0 5 4 6 10 2 9 -6 982 -7 1033 -1 15 2 27 -1 27 -6 0 -5
9 -4 20 2 11 6 20 7 20 2 0 -4 27 -5 60 -2 33 3 60 3 60 0 0 -3 65 -5 145 -5
80 0 145 4 145 8 0 4 9 3 20 -3 11 -6 20 -7 20 -2 0 5 7 9 15 9 8 0 15 -4 15
-9 0 -5 5 -6 11 -2 6 4 71 8 143 10 72 1 147 6 166 9 56 11 151 61 198 105 61
58 130 183 137 249 2 20 4 36 5 36 1 0 3 245 4 545 2 382 -1 547 -8 552 -7 5
-7 8 -1 8 6 0 10 90 9 250 0 138 2 253 5 255 6 3 6 48 0 137 -2 26 0 50 4 54
4 4 3 12 -2 18 -6 7 -4 16 5 24 8 7 14 11 14 8 0 -10 67 18 110 47 63 42 113
101 152 177 32 64 32 68 32 195 0 128 0 131 -34 200 -21 42 -56 92 -90 125
-96 97 -186 129 -355 126 -91 -1 -101 1 -79 12 29 15 44 49 44 100 0 39 -51
148 -117 251 -20 31 -44 70 -53 86 -9 17 -34 62 -55 100 -61 109 -105 138
-205 138 -72 1 -118 -19 -220 -93 -55 -40 -79 -58 -305 -214 l-119 -83 -43 44
c-25 25 -73 58 -111 76 l-67 32 -185 0 -185 0 -66 -31 c-36 -17 -86 -52 -111
-77 -42 -41 -48 -44 -64 -31 -28 21 -348 246 -429 302 -38 26 -83 53 -100 60
-44 19 -124 23 -169 7z m-239 -681 c-3 -3 -12 -4 -19 -1 -8 3 -5 6 6 6 11 1
17 -2 13 -5z m40 0 c-3 -3 -12 -4 -19 -1 -8 3 -5 6 6 6 11 1 17 -2 13 -5z m47
-6 c-3 -4 -11 -5 -19 -1 -21 7 -19 12 4 10 11 0 18 -5 15 -9z m46 6 c0 -8 -19
-13 -24 -6 -3 5 1 9 9 9 8 0 15 -2 15 -3z m60 1 c0 -7 -30 -13 -34 -7 -3 4 4
9 15 9 10 1 19 0 19 -2z m55 -5 c3 -5 1 -10 -4 -10 -6 0 -11 5 -11 10 0 6 2
10 4 10 3 0 8 -4 11 -10z m2205 6 c0 -2 -7 -7 -16 -10 -8 -3 -12 -2 -9 4 6 10
25 14 25 6z m247 -2 c-3 -3 -12 -4 -19 -1 -8 3 -5 6 6 6 11 1 17 -2 13 -5z
m-2743 -104 c31 -7 209 -12 451 -13 l399 -2 1 -323 c0 -178 -3 -326 -8 -329
-4 -2 -253 -5 -554 -5 -407 -1 -548 2 -551 10 -2 7 -9 12 -15 12 -22 0 -92 42
-118 70 -15 16 -41 59 -59 96 -26 53 -33 81 -34 131 -1 36 2 67 6 69 5 3 8 14
8 25 0 37 72 158 102 170 16 6 28 14 28 18 0 19 73 52 126 57 33 4 65 9 72 13
22 12 92 12 146 1z m2991 -9 c28 -6 64 -13 82 -16 48 -9 146 -86 176 -138 46
-84 58 -135 48 -207 -21 -146 -67 -213 -185 -273 l-60 -30 -543 -1 c-354 -1
-544 2 -546 9 -3 9 -1 623 2 644 0 5 168 9 392 10 342 1 475 5 487 16 6 6 97
-3 147 -14z m-2149 -1124 c5 -4 9 -406 9 -893 l0 -884 -25 -1 c-232 -6 -635 3
-692 17 -5 1 -21 2 -36 3 -47 2 -147 73 -186 133 -71 107 -69 71 -73 894 l-5
740 500 0 c275 -1 504 -5 508 -9z m2118 2 c12 -11 9 -1461 -3 -1517 -10 -49
-31 -84 -100 -164 -30 -34 -114 -74 -184 -87 -73 -13 -692 -19 -705 -7 -6 6
-11 1752 -5 1771 4 11 986 15 997 4z"/>
</g>
</svg>
