<svg width="46" height="57" viewBox="0 0 46 57" fill="none" xmlns="http://www.w3.org/2000/svg">
<path d="M0.679085 5.40009C0.785085 5.43609 0.894084 5.45309 1.00008 5.45309C1.41708 5.45309 1.80609 5.19108 1.94709 4.77408C2.26009 3.85608 3.26109 3.36309 4.17909 3.67409C6.14109 4.33809 8.28209 3.28508 8.94709 1.32208C9.12509 0.800085 8.84509 0.231086 8.32209 0.0530859C7.79709 -0.123914 7.23109 0.156085 7.05309 0.679085C6.74109 1.59809 5.74009 2.09109 4.82109 1.77909C2.86209 1.11809 0.719086 2.16908 0.0530859 4.13108C-0.123914 4.65308 0.156085 5.22209 0.679085 5.40009Z" transform="translate(29.6831 19.908)" fill="white"/>
<path d="M0.678969 5.40225C0.784969 5.43825 0.893968 5.45525 0.999968 5.45525C1.41697 5.45525 1.80597 5.19325 1.94697 4.77625C2.09797 4.33125 2.41297 3.97125 2.83497 3.76325C3.25697 3.55525 3.73397 3.52525 4.17897 3.67625C6.14097 4.34025 8.28097 3.28725 8.94697 1.32325C9.12497 0.801249 8.84397 0.232249 8.32197 0.0542488C7.79897 -0.125751 7.23097 0.157249 7.05397 0.680249C6.74197 1.60025 5.74297 2.09325 4.82197 1.78125C3.86997 1.45825 2.85097 1.52425 1.95097 1.96925C1.05097 2.41325 0.376969 3.18225 0.0539689 4.13325C-0.125031 4.65625 0.155969 5.22425 0.678969 5.40225Z" transform="translate(32.0492 12.9379)" fill="white"/>
<path d="M0.678193 4.82486C0.785193 4.86086 0.893196 4.87786 1.0002 4.87786C1.4172 4.87786 1.80619 4.61586 1.94719 4.19886C2.17719 3.52086 2.91819 3.15586 3.59519 3.38586C4.43019 3.66886 5.32519 3.61086 6.11619 3.22186C6.90619 2.83186 7.49719 2.15786 7.78119 1.32286C7.95919 0.800861 7.67919 0.231861 7.15619 0.0538608C6.63119 -0.125139 6.06519 0.156861 5.88719 0.679861C5.77519 1.00886 5.54219 1.27486 5.23119 1.42786C4.92019 1.58086 4.56819 1.60386 4.23819 1.49086C2.51619 0.909861 0.637193 1.83386 0.0531932 3.55486C-0.123807 4.07886 0.155193 4.64686 0.678193 4.82486Z" transform="translate(34.414 6.54725)" fill="white"/>
<path d="M42.3362 25.2341C42.1622 25.1151 41.9662 25.0471 41.7662 25.0211C43.7532 18.5641 44.8432 12.2381 44.9992 6.21311C45.0482 4.31811 44.1222 1.78811 42.2552 0.617107C41.3592 0.0541068 39.8912 -0.409893 37.9852 0.571107C34.9982 2.11211 32.8622 6.64511 31.1462 10.2891C31.0472 10.4991 30.9502 10.7041 30.8542 10.9071C30.4752 9.16411 29.3232 7.67311 27.6852 6.89511C27.2992 5.03911 25.8272 3.58511 23.9772 3.20811C23.9572 3.10411 23.9322 3.00211 23.9012 2.89911C23.5202 1.59711 22.3712 0.617107 21.0422 0.459107C20.2932 0.370107 19.5512 0.525107 18.9172 0.896107C18.3772 0.595107 17.7712 0.435107 17.1492 0.435107C15.4102 0.435107 13.9492 1.64811 13.5682 3.27111C11.6672 3.78911 10.2732 5.53411 10.2582 7.56211C8.08917 8.12211 6.50917 10.0821 6.50917 12.4131C6.50917 13.0311 6.62517 13.6431 6.84817 14.2201C6.28517 14.9151 5.97317 15.7851 5.97317 16.6981C5.97317 17.2461 6.08617 17.7741 6.29917 18.2621C5.30017 17.1721 3.89417 16.2811 2.31517 16.3391C1.76317 16.3571 1.32917 16.8181 1.34617 17.3701C1.36317 17.9111 1.80717 18.3391 2.34517 18.3391C2.37917 18.3401 2.41017 18.3371 2.44217 18.3371C3.37917 18.3371 4.25017 18.9571 4.88417 19.6771C3.29817 20.1341 1.38617 20.8781 0.494168 22.5601C-0.0428319 23.5751 -0.105832 24.8201 0.252168 26.2461C0.0791685 26.5351 -0.0158315 26.8711 0.00216846 27.2291L1.70417 51.4161C1.85917 54.4491 4.35917 56.8241 7.39517 56.8241H35.4662C38.5022 56.8241 41.0022 54.4491 41.1562 51.4341L42.9012 26.4061C42.9012 26.4001 42.9022 26.3941 42.9022 26.3881C42.9302 25.9271 42.7172 25.4961 42.3362 25.2341ZM31.6702 13.7671C32.0662 13.0281 32.4982 12.1121 32.9552 11.1411C34.4582 7.94911 36.5182 3.57811 38.9012 2.34811C39.7712 1.90011 40.5202 1.89111 41.1922 2.31011C42.3512 3.03811 43.0332 4.87511 43.0002 6.16111C42.8472 12.0731 41.7672 18.2951 39.7892 24.6551C39.7242 24.8641 39.5802 25.2861 39.3752 25.8651L37.6712 26.6221C37.6342 26.6391 37.5982 26.6571 37.5632 26.6791C37.0712 26.9741 36.5192 27.1201 35.9672 27.1261C35.4152 27.1201 34.8642 26.9741 34.3722 26.6791L33.6592 26.2511C32.8392 25.7591 31.9202 25.5131 31.0012 25.5131C30.9902 25.5131 30.9792 25.5151 30.9672 25.5151C30.0372 25.5091 29.1052 25.7521 28.2752 26.2511L27.5632 26.6791C27.1662 26.9171 26.7272 27.0331 26.2832 27.0831C26.3082 26.9961 26.3372 26.9111 26.3632 26.8251C26.6372 25.8941 26.9312 24.9761 27.2392 24.0651C27.3562 23.7191 27.4782 23.3751 27.6002 23.0321C27.8572 22.3091 28.1262 21.5951 28.4042 20.8861C28.5282 20.5691 28.6492 20.2491 28.7772 19.9351C29.6492 17.8081 30.6112 15.7451 31.6702 13.7671ZM18.9222 16.1391C19.0392 15.9891 19.1532 15.8431 19.2612 15.7011C19.2612 15.6991 19.2622 15.6981 19.2632 15.6971C19.3422 15.5921 19.4112 15.4831 19.4692 15.3741C19.7152 14.9111 19.7732 14.3911 19.6592 13.8831L23.8332 12.9701C23.8612 13.0981 23.8912 13.2251 23.9392 13.3431C24.1262 13.8011 24.4602 14.1821 24.9252 14.4481C25.0772 14.5321 25.2362 14.6161 25.4002 14.7031C25.5352 14.7741 25.6702 14.8481 25.8062 14.9221C25.8712 14.9571 25.9372 14.9921 26.0022 15.0281C26.1212 15.0951 26.2362 15.1691 26.3522 15.2421C26.4512 15.3031 26.5492 15.3661 26.6452 15.4331C26.7562 15.5101 26.8622 15.5951 26.9682 15.6811C27.0612 15.7571 27.1502 15.8401 27.2382 15.9251C27.3332 16.0181 27.4272 16.1131 27.5142 16.2171C27.6682 16.4011 27.8162 16.5921 27.9372 16.8211C27.5132 17.7571 27.1142 18.7121 26.7282 19.6751C26.6682 19.8241 26.6042 19.9691 26.5452 20.1181C25.4492 20.3961 24.3902 20.9161 23.0822 21.8471C21.4342 23.0181 20.2072 23.3291 18.1852 23.0361L17.5782 20.2571C17.1662 18.3781 18.0592 17.2401 18.9222 16.1391ZM23.8812 10.0661C23.9072 10.0611 23.9332 10.0581 23.9592 10.0581C24.1482 10.0581 24.3252 10.1931 24.3662 10.3831C24.3982 10.5271 24.3442 10.6401 24.3082 10.6951C24.2732 10.7491 24.1942 10.8441 24.0512 10.8751L18.5272 12.0841C18.3072 12.1321 18.0832 11.9861 18.0352 11.7681C17.9872 11.5491 18.1322 11.3241 18.3512 11.2761L21.2862 10.6341L23.8812 10.0661ZM20.6492 25.5331C20.5732 25.5381 20.4962 25.5401 20.4202 25.5481C19.8752 25.6031 19.3372 25.7411 18.8262 25.9711L18.6352 25.0961C18.9232 25.1201 19.2102 25.1441 19.4792 25.1441C21.2232 25.1441 22.6272 24.6251 24.2412 23.4771C24.7492 23.1151 25.1992 22.8411 25.6272 22.6141C25.5352 22.8751 25.4442 23.1351 25.3552 23.3971C25.2912 23.5851 25.2222 23.7701 25.1602 23.9591C24.8662 24.8491 24.5862 25.7461 24.3252 26.6511L23.6602 26.2531C22.8402 25.7611 21.9212 25.5151 21.0022 25.5151C20.9902 25.5151 20.9772 25.5171 20.9652 25.5171C20.8592 25.5151 20.7542 25.5271 20.6492 25.5331ZM8.68817 15.1921L9.34317 14.6521L8.91817 13.9191C8.65217 13.4591 8.51117 12.9391 8.51117 12.4131C8.51117 10.7931 9.78017 9.47211 11.4002 9.40411L12.6142 9.35311L12.3312 8.17111C12.2832 7.97311 12.2592 7.77811 12.2592 7.59311C12.2592 6.30511 13.2652 5.22011 14.5492 5.12211L15.4732 5.05211V4.05711C15.5022 3.15811 16.2432 2.43511 17.1502 2.43511C17.6722 2.43511 18.0462 2.67311 18.2672 2.87311L18.9682 3.50611L19.6402 2.84211C19.9482 2.53811 20.3712 2.39611 20.8072 2.44611C21.3432 2.50911 21.8272 2.92711 21.9832 3.46411C22.0362 3.64411 22.0512 3.81811 22.0302 3.99511L21.9132 5.11211H23.0392C24.4762 5.11211 25.6782 6.23511 25.7772 7.66911L25.8222 8.32611L26.4432 8.54411C28.0062 9.09311 29.0342 10.5721 28.9992 12.2271C28.9842 12.9341 28.7562 13.6151 28.3432 14.2121C27.6742 13.6441 26.9532 13.2611 26.3472 12.9421C26.1902 12.8591 26.0382 12.7791 25.8852 12.6941C25.8422 12.6701 25.7902 12.6281 25.7722 12.5231C25.7482 12.3791 25.8022 12.2061 25.9112 12.0791C26.3472 11.5731 26.5222 10.8831 26.3812 10.2321L26.2602 9.68111C26.1392 9.12511 25.8072 8.65011 25.3272 8.34211C24.8482 8.03511 24.2782 7.93211 23.7232 8.05411L23.4552 8.11311C23.4522 8.11411 23.4492 8.11311 23.4462 8.11411L20.5112 8.75611L17.6472 9.38111C17.0922 9.50211 16.6172 9.83311 16.3092 10.3141C16.0012 10.7931 15.8992 11.3641 16.0202 11.9191L16.0802 12.1911C16.0802 12.1921 16.0802 12.1931 16.0802 12.1941C16.0802 12.1951 16.0812 12.1961 16.0812 12.1981L16.1402 12.4691C16.2852 13.1351 16.7482 13.6961 17.3772 13.9661C17.5332 14.0331 17.6632 14.1601 17.7082 14.2891C17.7342 14.3631 17.7192 14.4011 17.6612 14.4971C17.6612 14.4971 17.6612 14.4971 17.6612 14.4981C17.5622 14.6311 17.4552 14.7661 17.3462 14.9051C17.2362 15.0451 17.1222 15.1921 17.0062 15.3441C16.9672 15.3951 16.9302 15.4481 16.8912 15.5001C16.8082 15.6131 16.7252 15.7281 16.6432 15.8481C16.5982 15.9131 16.5552 15.9801 16.5112 16.0481C16.4352 16.1651 16.3622 16.2861 16.2902 16.4101C16.2482 16.4821 16.2072 16.5531 16.1672 16.6281C16.0922 16.7681 16.0242 16.9151 15.9572 17.0651C15.9282 17.1291 15.8972 17.1901 15.8712 17.2571C15.7832 17.4751 15.7052 17.7031 15.6432 17.9431C15.6332 17.9811 15.6292 18.0221 15.6202 18.0611C15.5722 18.2651 15.5332 18.4761 15.5082 18.6961C15.4982 18.7841 15.4962 18.8761 15.4902 18.9671C15.4822 19.0851 15.4672 19.1971 15.4672 19.3201C15.4632 19.3151 15.4592 19.3101 15.4552 19.3051C15.4412 19.2871 15.4272 19.2711 15.4142 19.2531C15.2402 19.0241 15.0662 18.8131 14.8912 18.6131C14.8362 18.5501 14.7802 18.4891 14.7242 18.4291C14.5772 18.2701 14.4302 18.1211 14.2822 17.9811C14.2342 17.9361 14.1862 17.8871 14.1372 17.8431C13.9502 17.6761 13.7622 17.5231 13.5732 17.3871C13.5202 17.3491 13.4662 17.3171 13.4132 17.2811C13.2712 17.1861 13.1292 17.0981 12.9852 17.0201C12.9152 16.9821 12.8462 16.9451 12.7752 16.9111C12.6262 16.8381 12.4762 16.7761 12.3252 16.7221C12.2752 16.7041 12.2252 16.6801 12.1752 16.6641C12.0112 16.6121 11.8462 16.5701 11.6802 16.5391C11.6612 16.5351 11.6422 16.5371 11.6232 16.5341C11.5892 16.5281 11.5562 16.5151 11.5222 16.5101C11.4062 16.4931 11.2962 16.5001 11.1822 16.4921C11.1022 16.4871 11.0232 16.4701 10.9432 16.4701C10.9192 16.4701 10.8942 16.4761 10.8692 16.4761C10.7142 16.4781 10.5642 16.4961 10.4132 16.5151C10.3382 16.5251 10.2632 16.5311 10.1882 16.5451C9.99117 16.5811 9.80017 16.6311 9.61117 16.6911C9.58217 16.7001 9.55417 16.7071 9.52517 16.7171C9.02717 16.8861 8.55517 17.1251 8.11317 17.4141C8.02217 17.1891 7.97417 16.9471 7.97417 16.6981C7.97517 16.1131 8.23517 15.5641 8.68817 15.1921ZM2.26317 23.4951C2.68617 22.6981 3.71317 22.0901 5.49617 21.5801C6.33017 21.3421 7.10417 20.8971 7.73217 20.2971C8.01717 20.0241 8.28417 19.7931 8.54217 19.5831C9.34817 18.9281 10.0432 18.5721 10.6722 18.4911C10.6862 18.4891 10.7002 18.4871 10.7142 18.4861C10.9132 18.4641 11.1062 18.4701 11.2932 18.5031C11.3422 18.5121 11.3922 18.5291 11.4422 18.5421C11.5352 18.5651 11.6272 18.5881 11.7202 18.6251C11.7802 18.6481 11.8402 18.6831 11.9012 18.7111C11.9882 18.7531 12.0742 18.7911 12.1612 18.8441C12.2292 18.8851 12.2972 18.9381 12.3652 18.9851C12.4462 19.0421 12.5272 19.0941 12.6092 19.1601C12.6852 19.2211 12.7612 19.2951 12.8372 19.3641C12.9132 19.4331 12.9892 19.4961 13.0652 19.5731C13.1492 19.6581 13.2342 19.7571 13.3192 19.8521C13.3882 19.9291 13.4572 20.0001 13.5272 20.0831C13.6222 20.1971 13.7182 20.3271 13.8142 20.4531C13.8752 20.5331 13.9352 20.6051 13.9962 20.6901C14.1052 20.8421 14.2152 21.0111 14.3252 21.1791C14.3732 21.2531 14.4222 21.3191 14.4702 21.3951C14.6292 21.6461 14.7892 21.9131 14.9502 22.1971C15.6862 23.4961 15.9302 25.4151 15.6102 27.0861C15.5572 27.0811 15.5052 27.0731 15.4522 27.0651C15.0712 27.0001 14.7042 26.8781 14.3702 26.6781L13.6572 26.2501C12.8372 25.7581 11.9182 25.5121 10.9992 25.5121C10.9882 25.5121 10.9772 25.5141 10.9652 25.5141C10.0352 25.5081 9.10317 25.7511 8.27317 26.2501L7.92617 26.4581C7.32117 26.8211 6.64317 27.0041 5.96517 27.0101C5.28617 27.0041 4.60917 26.8221 4.00417 26.4581L2.65917 25.6501C2.65917 25.6501 2.65817 25.6501 2.65817 25.6491C2.48117 25.5441 2.29017 25.4721 2.09417 25.4361C1.93717 24.6451 1.99317 24.0051 2.26317 23.4951ZM39.1642 51.3131C39.0632 53.2811 37.4402 54.8231 35.4702 54.8231H7.39817C5.42717 54.8231 3.80517 53.2811 3.70317 51.2941L2.03917 27.6521L2.90917 28.1741C3.85217 28.7401 4.91117 29.0181 5.96717 29.0121C7.02417 29.0181 8.08217 28.7401 9.02517 28.1741L9.37217 27.9661C9.86417 27.6701 10.4152 27.5241 10.9672 27.5181C11.5192 27.5241 12.0702 27.6701 12.5632 27.9661L13.2762 28.3941C14.1782 28.9351 15.2002 29.1671 16.2102 29.1121C16.3002 29.1081 16.3902 29.1081 16.4812 29.1001C16.4922 29.0991 16.5022 29.0931 16.5142 29.0921C17.1972 29.0151 17.8672 28.8001 18.4852 28.4481C18.5432 28.4271 18.6052 28.4261 18.6592 28.3941L19.3722 27.9661C19.8642 27.6701 20.4152 27.5241 20.9672 27.5181C21.5192 27.5241 22.0702 27.6701 22.5632 27.9661L23.2762 28.3941C24.0332 28.8471 24.8752 29.0821 25.7222 29.1171C25.7392 29.1181 25.7572 29.1201 25.7742 29.1201C26.0662 29.1291 26.3582 29.1201 26.6482 29.0791C26.8142 29.0581 26.9752 29.0161 27.1382 28.9791C27.2172 28.9601 27.2962 28.9431 27.3742 28.9201C27.8182 28.7971 28.2532 28.6361 28.6582 28.3931L29.3712 27.9651C29.8632 27.6691 30.4142 27.5231 30.9662 27.5171C31.5182 27.5231 32.0692 27.6691 32.5622 27.9651L33.2752 28.3931C34.1012 28.8881 35.0282 29.1311 35.9542 29.1271C35.9692 29.1271 35.9852 29.1301 36.0002 29.1301C36.8982 29.1301 37.7972 28.8961 38.6032 28.4261L40.5652 27.5541C40.6072 27.5351 40.6372 27.4991 40.6762 27.4751L40.8292 27.4071L39.1642 51.3131Z" fill="white"/>
<path d="M1 2H8C8.552 2 9 1.553 9 1C9 0.447 8.552 0 8 0H1C0.448 0 0 0.447 0 1C0 1.553 0.448 2 1 2Z" transform="translate(5.00117 41.0041)" fill="white"/>
<path d="M1 2H10C10.552 2 11 1.553 11 1C11 0.447 10.552 0 10 0H1C0.448 0 0 0.447 0 1C0 1.553 0.448 2 1 2Z" transform="translate(5.00117 45.0041)" fill="white"/>
<path d="M12 0H1C0.448 0 0 0.447 0 1C0 1.553 0.448 2 1 2H12C12.552 2 13 1.553 13 1C13 0.447 12.552 0 12 0Z" transform="translate(5.00117 49.0041)" fill="white"/>
<path d="M3 0H1C0.448 0 0 0.447 0 1C0 1.553 0.448 2 1 2H3C3.552 2 4 1.553 4 1C4 0.447 3.552 0 3 0Z" transform="translate(20.0012 49.0041)" fill="white"/>
</svg>
