<svg width="82" height="82" viewBox="0 0 82 82" fill="none" xmlns="http://www.w3.org/2000/svg">
<path d="M18.2188 32.5781C18.2188 24.4219 20 17.8438 23.5625 12.8438C27.125 7.84375 32.0469 5.34375 38.3281 5.34375C41.5156 5.34375 44.3125 5.96875 46.7188 7.21875C49.125 8.46875 51.1406 10.2812 52.7656 12.6562L53.6094 6.28125H61.3906V56.3438C61.3906 62.9062 59.5625 68.0625 55.9062 71.8125C52.25 75.5938 47.0469 77.4844 40.2969 77.4844C37.8594 77.4844 35.2188 77.1406 32.375 76.4531C29.5312 75.7969 27.0312 74.8906 24.875 73.7344L27.2656 66.5625C28.9844 67.4688 31.0156 68.2188 33.3594 68.8125C35.7031 69.4062 37.9844 69.7031 40.2031 69.7031C44.3281 69.7031 47.3438 68.5469 49.25 66.2344C51.1875 63.9219 52.1562 60.625 52.1562 56.3438V51.5156C50.5 53.6406 48.5156 55.25 46.2031 56.3438C43.8906 57.4375 41.2344 57.9844 38.2344 57.9844C32.0156 57.9844 27.125 55.7344 23.5625 51.2344C20 46.7344 18.2188 40.8438 18.2188 33.5625V32.5781ZM27.4531 33.5625C27.4531 38.6562 28.5312 42.75 30.6875 45.8438C32.8438 48.9375 36.125 50.4844 40.5312 50.4844C43.3125 50.4844 45.6406 49.8594 47.5156 48.6094C49.3906 47.3281 50.9375 45.5312 52.1562 43.2188V19.875C50.9688 17.7188 49.4219 16.0156 47.5156 14.7656C45.6094 13.4844 43.3125 12.8438 40.625 12.8438C36.2188 12.8438 32.9219 14.6875 30.7344 18.375C28.5469 22.0625 27.4531 26.7969 27.4531 32.5781V33.5625Z" fill="white"/>
</svg>
