<svg width="643" height="256" viewBox="0 0 643 256" fill="none" xmlns="http://www.w3.org/2000/svg">
<path d="M280.512 310.776C283.008 310.776 284.928 311.928 286.272 314.232C287.808 316.536 288.576 319.704 288.576 323.736C288.576 331.224 286.752 337.176 283.104 341.592C264.096 364.824 243.84 376.44 222.336 376.44C203.712 376.44 188.832 369.24 177.696 354.84C166.56 340.44 160.992 319.8 160.992 292.92C160.992 286.392 161.28 279.864 161.856 273.336C149.184 275.64 135.36 277.368 120.384 278.52C110.4 279.288 103.584 279.768 99.936 279.96C96.096 299.544 90.72 323.544 83.808 351.96C79.776 368.664 72.096 377.016 60.768 377.016C48.48 377.016 42.336 371.448 42.336 360.312C42.336 357.816 42.816 354.36 43.776 349.944C50.304 323.64 55.488 301.368 59.328 283.128L45.504 283.704C39.168 283.704 34.56 282.648 31.68 280.536C28.8 278.232 27.36 274.584 27.36 269.592C27.36 263.256 29.184 258.648 32.832 255.768C36.48 252.696 42.528 250.968 50.976 250.584L66.24 250.008C71.232 222.936 73.728 202.296 73.728 188.088C73.728 179.064 72.384 172.92 69.696 169.656C67.008 166.392 63.456 164.76 59.04 164.76C45.6 164.76 30.432 175.992 13.536 198.456C11.04 201.72 8.256 203.352 5.184 203.352C2.496 203.352 0.192 202.104 -1.728 199.608C-3.648 197.112 -4.608 193.944 -4.608 190.104C-4.608 184.152 -2.208 177.816 2.592 171.096C11.04 159.384 21.696 149.784 34.56 142.296C47.424 134.616 60.48 130.776 73.728 130.776C86.208 130.776 95.808 135.096 102.528 143.736C109.44 152.184 112.896 165.432 112.896 183.48C112.896 199.416 110.592 221.016 105.984 248.28L134.208 246.84C146.304 246.264 156.672 245.304 165.312 243.96C168.768 222.84 174.048 203.064 181.152 184.632C188.256 166.2 197.088 151.224 207.648 139.704C218.208 128.184 230.016 122.424 243.072 122.424C252.672 122.424 260.256 126.264 265.824 133.944C271.392 141.432 274.176 151.32 274.176 163.608C274.176 211.224 249.888 244.248 201.312 262.68C200.736 270.36 200.448 278.328 200.448 286.584C200.448 306.744 202.944 321.048 207.936 329.496C212.928 337.944 219.936 342.168 228.96 342.168C236.832 342.168 244.032 340.152 250.56 336.12C257.088 331.896 264.48 324.792 272.736 314.808C275.04 312.12 277.632 310.776 280.512 310.776ZM241.632 147.48C237.408 147.48 232.896 151.32 228.096 159C223.488 166.68 219.072 177.144 214.848 190.392C210.624 203.64 207.264 218.136 204.768 233.88C220.128 227.544 231.456 218.52 238.752 206.808C246.048 195.096 249.696 180.024 249.696 161.592C249.696 157.176 248.928 153.72 247.392 151.224C245.856 148.728 243.936 147.48 241.632 147.48ZM294.926 376.44C283.022 376.44 273.518 372.12 266.414 363.48C259.31 354.84 255.758 343.512 255.758 329.496C255.758 314.136 259.31 299.64 266.414 286.008C273.518 272.184 282.926 261.144 294.638 252.888C306.542 244.44 319.118 240.216 332.366 240.216C336.59 240.216 339.374 241.08 340.718 242.808C342.254 244.344 343.502 247.224 344.462 251.448C348.494 250.68 352.718 250.296 357.134 250.296C366.542 250.296 371.246 253.656 371.246 260.376C371.246 264.408 369.806 274.008 366.926 289.176C362.51 311.256 360.302 326.616 360.302 335.256C360.302 338.136 360.974 340.44 362.318 342.168C363.854 343.896 365.774 344.76 368.078 344.76C371.726 344.76 376.142 342.456 381.326 337.848C386.51 333.048 393.518 325.368 402.35 314.808C404.654 312.12 407.246 310.776 410.125 310.776C412.622 310.776 414.542 311.928 415.886 314.232C417.422 316.536 418.189 319.704 418.189 323.736C418.189 331.416 416.365 337.368 412.718 341.592C404.845 351.384 396.494 359.64 387.662 366.36C378.83 373.08 370.286 376.44 362.03 376.44C355.694 376.44 349.838 374.328 344.462 370.104C339.278 365.688 335.342 359.736 332.654 352.248C322.67 368.376 310.094 376.44 294.926 376.44ZM305.294 347.352C309.518 347.352 313.55 344.856 317.39 339.864C321.23 334.872 324.014 328.248 325.742 319.992L336.398 267C328.334 267.192 320.846 270.264 313.934 276.216C307.214 281.976 301.838 289.656 297.806 299.256C293.774 308.856 291.758 319.032 291.758 329.784C291.758 335.736 292.91 340.152 295.214 343.032C297.71 345.912 301.07 347.352 305.294 347.352ZM409.471 376.44C402.175 376.44 396.991 372.6 393.919 364.92C391.039 357.24 389.599 344.952 389.599 328.056C389.599 303.096 393.151 279.384 400.255 256.92C401.983 251.352 404.767 247.32 408.607 244.824C412.639 242.136 418.207 240.792 425.311 240.792C429.151 240.792 431.839 241.272 433.375 242.232C434.911 243.192 435.679 245.016 435.679 247.704C435.679 250.776 434.239 257.688 431.359 268.44C429.439 276.12 427.903 282.84 426.751 288.6C425.599 294.36 424.639 301.464 423.871 309.912C430.207 293.4 437.311 279.96 445.183 269.592C453.055 259.224 460.735 251.832 468.223 247.416C475.903 243 482.911 240.792 489.247 240.792C501.727 240.792 507.967 247.032 507.967 259.512C507.967 267 505.855 280.536 501.631 300.12C497.983 316.824 496.159 327.864 496.159 333.24C496.159 340.92 498.943 344.76 504.511 344.76C508.351 344.76 512.863 342.456 518.047 337.848C523.423 333.048 530.527 325.368 539.359 314.808C541.663 312.12 544.255 310.776 547.135 310.776C549.631 310.776 551.551 311.928 552.895 314.232C554.431 316.536 555.199 319.704 555.199 323.736C555.199 331.416 553.375 337.368 549.727 341.592C541.471 351.768 532.543 360.12 522.943 366.648C513.535 373.176 502.783 376.44 490.687 376.44C480.895 376.44 473.503 373.656 468.511 368.088C463.519 362.328 461.023 354.072 461.023 343.32C461.023 337.944 462.367 328.344 465.055 314.52C467.551 302.424 468.799 294.072 468.799 289.464C468.799 286.392 467.743 284.856 465.631 284.856C463.135 284.856 459.583 288.12 454.975 294.648C450.559 300.984 445.951 309.432 441.151 319.992C436.543 330.552 432.799 341.688 429.919 353.4C427.807 362.424 425.311 368.568 422.431 371.832C419.743 374.904 415.423 376.44 409.471 376.44ZM559.258 376.44C548.314 376.44 539.386 372.12 532.474 363.48C525.754 354.84 522.394 343.512 522.394 329.496C522.394 314.136 525.946 299.64 533.05 286.008C540.154 272.184 549.562 261.144 561.274 252.888C573.178 244.44 585.754 240.216 599.002 240.216C603.226 240.216 606.01 241.08 607.354 242.808C608.89 244.344 610.138 247.224 611.098 251.448C614.746 250.68 618.778 250.296 623.194 250.296C627.802 250.296 631.354 251.448 633.85 253.752C636.346 256.056 637.594 259.32 637.594 263.544C637.594 267.96 636.634 275.64 634.714 286.584C632.602 298.296 630.97 309.528 629.818 320.28C628.666 330.84 628.09 342.744 628.09 355.992C628.09 363.288 626.554 368.568 623.482 371.832C620.602 374.904 615.802 376.44 609.082 376.44C602.554 376.44 597.658 374.904 594.394 371.832C591.322 368.568 589.786 363.384 589.786 356.28L590.074 351.672C584.122 368.184 573.85 376.44 559.258 376.44ZM570.49 347.352C575.866 347.352 580.762 343.608 585.178 336.12C589.594 328.632 593.53 315.288 596.986 296.088L602.458 267C594.586 267.192 587.29 270.264 580.57 276.216C573.85 281.976 568.474 289.656 564.442 299.256C560.41 308.856 558.394 319.032 558.394 329.784C558.394 335.544 559.45 339.96 561.562 343.032C563.866 345.912 566.842 347.352 570.49 347.352Z" transform="translate(5 -122)" fill="#EFEFEF"/>
</svg>
