<svg width="1305" height="630" viewBox="0 0 1305 630" fill="none" xmlns="http://www.w3.org/2000/svg">
<path fill-rule="evenodd" clip-rule="evenodd" d="M0 0H630V630H0V0ZM481.6 528.14C452.4 528.14 435.89 512.91 423.2 492.19L375.09 520.14C392.47 554.48 427.99 580.68 482.97 580.68C539.2 580.68 581.07 551.48 581.07 498.18C581.07 448.74 552.67 426.75 502.37 405.18L487.57 398.84C462.17 387.84 451.17 380.65 451.17 362.89C451.17 348.52 462.16 337.52 479.5 337.52C496.5 337.52 507.45 344.69 517.6 362.89L563.7 333.29C544.2 298.99 517.14 285.89 479.5 285.89C426.63 285.89 392.8 319.69 392.8 364.09C392.8 412.29 421.18 435.09 463.9 453.29L478.7 459.64C505.7 471.45 521.8 478.64 521.8 498.94C521.8 515.88 506.13 528.14 481.6 528.14ZM252.17 527.77C231.83 527.77 223.37 513.82 214.07 497.32L165.88 526.495C179.84 556.04 207.29 580.57 254.69 580.57C307.15 580.57 343.09 552.67 343.09 491.37V289.27H283.89V490.57C283.89 520.16 271.62 527.77 252.17 527.77Z" fill="#333"/>
<path fill-rule="evenodd" clip-rule="evenodd" d="M30 30H600V600H30V30ZM630 0H600H30H0V30V600V630H30H600H630V600V30V0ZM117.88 577.92C128.147 582.213 139.44 584.36 151.76 584.36C164.08 584.36 175.28 582.213 185.36 577.92C195.627 573.44 204.4 567.093 211.68 558.88C218.96 550.667 224.56 540.68 228.48 528.92C232.587 517.16 234.64 503.813 234.64 488.88C234.64 474.133 232.587 460.973 228.48 449.4C224.56 437.64 218.96 427.747 211.68 419.72C204.4 411.693 195.627 405.627 185.36 401.52C175.28 397.227 164.08 395.08 151.76 395.08C139.44 395.08 128.147 397.227 117.88 401.52C107.8 405.627 99.12 411.693 91.84 419.72C84.56 427.56 78.8667 437.36 74.76 449.12C70.84 460.693 68.88 473.947 68.88 488.88C68.88 503.813 70.84 517.16 74.76 528.92C78.8667 540.68 84.56 550.667 91.84 558.88C99.12 567.093 107.8 573.44 117.88 577.92ZM181.44 532.84C174.16 543.48 164.267 548.8 151.76 548.8C139.253 548.8 129.36 543.48 122.08 532.84C114.8 522.013 111.16 507.36 111.16 488.88C111.16 470.587 114.8 456.307 122.08 446.04C129.36 435.773 139.253 430.64 151.76 430.64C164.267 430.64 174.16 435.773 181.44 446.04C188.72 456.307 192.36 470.587 192.36 488.88C192.36 507.36 188.72 522.013 181.44 532.84ZM260.566 398.44V581H301.726V515.2H324.406L359.406 581H405.606L364.166 507.92C374.06 503.627 381.9 497.187 387.686 488.6C393.66 479.827 396.646 468.72 396.646 455.28C396.646 444.453 394.78 435.4 391.046 428.12C387.313 420.84 382.273 415.053 375.926 410.76C369.58 406.28 362.113 403.107 353.526 401.24C345.126 399.373 336.073 398.44 326.366 398.44H260.566ZM323.006 482.44H301.726V431.2H323.006C333.833 431.2 342.046 432.973 347.646 436.52C353.433 440.067 356.326 446.32 356.326 455.28C356.326 464.24 353.433 471.053 347.646 475.72C342.046 480.2 333.833 482.44 323.006 482.44ZM469.245 578.48C480.258 582.4 492.018 584.36 504.525 584.36C517.405 584.36 529.072 582.213 539.525 577.92C549.978 573.627 558.378 568.4 564.725 562.24V478.24H498.085V511.84H528.325V543.2C526.085 545.067 523.192 546.467 519.645 547.4C516.098 548.333 512.458 548.8 508.725 548.8C491.552 548.8 478.672 543.667 470.085 533.4C461.685 522.947 457.485 508.293 457.485 489.44C457.485 480.293 458.605 472.08 460.845 464.8C463.272 457.52 466.632 451.36 470.925 446.32C475.218 441.28 480.258 437.453 486.045 434.84C492.018 432.04 498.552 430.64 505.645 430.64C513.485 430.64 520.018 432.04 525.245 434.84C530.472 437.64 535.418 441.093 540.085 445.2L561.645 418.88C555.672 412.72 547.925 407.213 538.405 402.36C528.885 397.507 517.498 395.08 504.245 395.08C492.112 395.08 480.632 397.227 469.805 401.52C458.978 405.813 449.458 412.067 441.245 420.28C433.218 428.493 426.872 438.573 422.205 450.52C417.538 462.28 415.205 475.72 415.205 490.84C415.205 506.147 417.445 519.68 421.925 531.44C426.592 543.013 432.938 552.72 440.965 560.56C448.992 568.4 458.418 574.373 469.245 578.48Z" transform="translate(675)" fill="#333"/>
</svg>
