<?xml version="1.0" standalone="no"?>
<!DOCTYPE svg PUBLIC "-//W3C//DTD SVG 20010904//EN"
 "http://www.w3.org/TR/2001/REC-SVG-20010904/DTD/svg10.dtd">
<svg version="1.0" xmlns="http://www.w3.org/2000/svg"
 width="700.000000pt" height="700.000000pt" viewBox="0 0 700.000000 700.000000"
 preserveAspectRatio="xMidYMid meet">
<metadata>
Created by potrace 1.11, written by Peter Selinger 2001-2013
</metadata>
<g transform="translate(0.000000,700.000000) scale(0.100000,-0.100000)"
fill="#fff" stroke="none">
<path d="M2538 5775 c-2 -1 -32 -5 -68 -8 -265 -24 -518 -116 -714 -260 -78
-58 -256 -230 -256 -248 0 -5 -3 -9 -8 -9 -4 0 -7 97 -7 215 l1 215 -716 0
-715 0 0 -2195 0 -2195 35 0 c53 -1 1391 -1 1420 -1 l25 1 1 1313 c0 1294 2
1388 24 1497 68 333 336 519 685 475 241 -30 418 -211 471 -480 4 -22 9 -661
11 -1419 2 -759 6 -1382 8 -1384 5 -6 1465 -5 1470 0 3 2 6 620 7 1374 l3
1369 23 79 c64 227 189 364 397 432 66 22 102 28 205 30 69 2 150 -1 180 -7
153 -27 299 -123 381 -251 31 -49 74 -159 83 -213 2 -16 7 -49 11 -73 4 -24 7
-651 7 -1393 0 -742 3 -1349 6 -1349 12 -1 1416 -2 1447 -1 l30 1 -1 1402 c0
772 -4 1439 -8 1483 -17 196 -46 362 -87 505 -32 112 -38 127 -102 264 -165
354 -448 606 -827 738 -47 16 -92 31 -100 33 -56 15 -228 45 -290 52 -91 10
-413 10 -490 0 -30 -4 -77 -9 -105 -13 -186 -22 -467 -119 -640 -222 -127 -76
-312 -235 -371 -320 l-15 -22 -45 57 c-231 298 -538 464 -959 520 -37 5 -402
12 -407 8z"/>
</g>
</svg>
