<svg
	version="1.0"
	xmlns="http://www.w3.org/2000/svg"
	width="354.667" height="354.667"
	viewBox="0 0 266.000000 266.000000"
>
	<g fill="#d01413">
		<path d="M66.7 66.8L1 132.5l65.8 65.8 65.7 65.7 65.8-65.8 65.7-65.7-65.8-65.8L132.5 1 66.7 66.8zm113.6 113.4L132.5 228l-29.2-29.2L74 169.5l27.7-27.7 27.8-27.8 22.5 22.5 22.5 22.5 9.8-9.8 9.7-9.7-32.5-32.5L129 74.5 91.5 112 54 149.5l-8.5-8.5-8.5-8.5 47.7-47.7L132.5 37l47.7 47.7 47.8 47.8-47.7 47.7z"/>
		<path d="M120.7 160.8l-9.7 9.7 10 10 10 10 9.5-9.5c5.2-5.2 9.5-9.9 9.5-10.5 0-1-18-19.5-19-19.5-.3 0-4.9 4.4-10.3 9.8z"/>
	</g>
</svg>
