<?xml version="1.0" encoding="UTF-8" standalone="no"?>
<!DOCTYPE svg PUBLIC "-//W3C//DTD SVG 1.1//EN" "http://www.w3.org/Graphics/SVG/1.1/DTD/svg11.dtd">
<svg version="1.1" xmlns="http://www.w3.org/2000/svg" xmlns:xlink="http://www.w3.org/1999/xlink" preserveAspectRatio="xMidYMid meet" viewBox="16.96875 13.0625 380.18080759124325 380.18080759124325" width="376.18" height="376.18"><defs><path d="M206.06 14.06L394.15 202.15L206.06 390.24L17.97 202.15L206.06 14.06Z" id="b3SrEw98dN"></path><path d="M206.06 67.8L340.41 202.15L206.06 336.5L71.71 202.15L206.06 67.8Z" id="ckSCzHDAq"></path><path d="M206.06 121.54L286.67 202.15L206.06 282.76L125.45 202.15L206.06 121.54Z" id="bNFyNIYew"></path><path d="M206.06 175.28L232.93 202.15L206.06 229.02L179.19 202.15L206.06 175.28Z" id="beFdzWmZm"></path><path d="M184.44 196.9L211.31 223.77L174.95 260.13L148.08 233.26L184.44 196.9Z" id="awK6knPHU"></path><path d="M230.39 199.61L266.41 235.63L239.54 262.5L203.52 226.48L230.39 199.61Z" id="g1ySLa8Pf8"></path><path d="M131.72 195.88L158.59 222.75L122.23 259.11L95.36 232.24L131.72 195.88Z" id="g1EARYtzmo"></path></defs><g><g><use xlink:href="#b3SrEw98dN" opacity="1" fill="#35495e" fill-opacity="1"></use></g><g><use xlink:href="#ckSCzHDAq" opacity="1" fill="#42b883" fill-opacity="1"></use></g><g><use xlink:href="#bNFyNIYew" opacity="1" fill="#35495e" fill-opacity="1"></use></g><g><use xlink:href="#beFdzWmZm" opacity="1" fill="#42b883" fill-opacity="1"></use></g><g><use xlink:href="#awK6knPHU" opacity="1" fill="#42b883" fill-opacity="1"></use></g><g><use xlink:href="#g1ySLa8Pf8" opacity="1" fill="#42b883" fill-opacity="1"></use></g><g><use xlink:href="#g1EARYtzmo" opacity="1" fill="#35495e" fill-opacity="1"></use></g></g></svg>
