<svg width="80" height="117" viewBox="0 0 80 117" fill="none" xmlns="http://www.w3.org/2000/svg">
<path fill-rule="evenodd" clip-rule="evenodd" d="M6.65967 0C5.61578 4.13426 4.41705 6.46991 0 7.34154V108.24L71.8036 116.449L79.4732 108.258V8.46336C79.3752 7.55565 79.0725 7.07613 77.7499 6.96181L6.65967 0ZM8 2.5C7.5 4.5 6.5 6.5 4.5 7.5L69.2067 13.8171C69.4721 13.8714 69.7536 13.8913 70.0351 13.9111C71.2623 13.9979 72.4894 14.0847 72.3876 17.0193L72 113L76.9953 107.783L76.9385 10.714C76.8451 9.57465 76.4076 9.33939 75.4573 9.18758L8 2.5ZM54.1094 48.45C54.3976 45.4848 53.3599 43.8873 50.996 43.6576C47.9064 43.3573 44.4616 45.4191 40.6616 49.8431C40.039 51.0803 39.5893 52.2611 39.3126 53.3854C41.1313 53.625 43.0047 54.1629 44.9328 54.9992C46.8837 55.8168 48.4971 56.769 49.7729 57.8559C50.8422 56.976 51.7869 55.655 52.6071 53.8927C53.4293 52.1097 53.9301 50.2955 54.1094 48.45ZM16.2521 72.2743L29.2844 73.5411C29.7613 73.5874 30.3577 73.3733 31.0737 72.8987C31.7916 72.4033 32.1637 72.0208 32.1899 71.7513C33.9217 62.3329 36.3128 52.5915 39.3633 42.5269C37.7667 42.3717 35.4539 42.262 32.4251 42.1979C29.419 42.115 27.5471 42.1005 26.8092 42.1544C26.0921 42.2103 25.3662 42.4642 24.6315 42.916C23.9176 43.3699 23.5496 43.7109 23.5274 43.939C21.671 53.9941 19.2458 63.4392 16.2521 72.2743Z" fill="#efefef"/>
</svg>
