<?xml version="1.0" standalone="no"?>
<!DOCTYPE svg PUBLIC "-//W3C//DTD SVG 20010904//EN"
 "http://www.w3.org/TR/2001/REC-SVG-20010904/DTD/svg10.dtd">
<svg version="1.0" xmlns="http://www.w3.org/2000/svg"
 width="700.000000pt" height="700.000000pt" viewBox="0 0 700.000000 700.000000"
 preserveAspectRatio="xMidYMid meet">
<metadata>
Created by potrace 1.11, written by Peter Selinger 2001-2013
</metadata>
<g transform="translate(0.000000,700.000000) scale(0.100000,-0.100000)"
fill="#000000" stroke="none">
<path d="M1746 5253 l-1746 -1746 1745 -1746 1746 -1745 1747 1747 1747 1747
-1746 1745 -1746 1745 -1747 -1747z m2991 -495 c684 -684 1243 -1246 1243
-1249 0 -9 -2480 -2489 -2489 -2489 -3 0 -341 335 -751 745 l-745 745 749 749
748 748 499 -499 500 -498 242 242 c134 134 245 247 248 251 4 8 -1479 1497
-1490 1497 -3 0 -454 -448 -1001 -995 l-994 -996 -250 250 -249 249 1244 1246
c684 685 1246 1245 1249 1245 3 1 564 -558 1247 -1241z"/>
<path d="M3249 2764 c-134 -135 -246 -247 -249 -250 -2 -3 108 -117 245 -254
l248 -248 249 249 249 249 -127 128 c-69 70 -181 182 -249 249 l-122 122 -244
-245z"/>
</g>
</svg>
