<svg width="120" height="120" viewBox="0 0 120 120" fill="none" xmlns="http://www.w3.org/2000/svg">
<path fill-rule="evenodd" clip-rule="evenodd" d="M0 60C0 93.084 26.916 120 60 120C93.084 120 120 93.084 120 60C120 26.916 93.083 0 60 0C26.916 0 0 26.916 0 60ZM22.313 60.0006C22.313 80.9536 39.1345 98 59.813 98C80.4916 98 97.313 80.9536 97.313 60.0006C97.313 39.0464 80.4904 22 59.813 22C39.1356 22 22.313 39.0464 22.313 60.0006ZM73.2493 28C79.6266 34.2641 82.6463 43.4576 82.6463 53.0919C82.6463 72.1083 67.2104 87.5793 48.2351 87.5793C43.7444 87.5793 39.9362 86.3789 36 84.8044C42.2101 90.9046 50.2265 95 59.5887 95C78.5641 95 94 79.529 94 60.5136C94 45.9938 85.9478 33.0796 73.2493 28ZM38.313 58C38.313 60.2091 36.746 62 34.813 62C32.8801 62 31.313 60.2091 31.313 58C31.313 55.7909 32.8801 54 34.813 54C36.746 54 38.313 55.7909 38.313 58ZM46.3131 48C49.6268 48 52.313 45.5376 52.313 42.5C52.313 39.4624 49.6268 37 46.3131 37C42.9993 37 40.313 39.4624 40.313 42.5C40.313 45.5376 42.9993 48 46.3131 48ZM49.8142 86C56.1624 86 61.313 80.624 61.313 74.0006C61.313 67.376 56.1636 62 49.8142 62C43.4648 62 38.313 67.3737 38.313 74.0006C38.313 80.624 43.4648 86 49.8142 86Z" fill="white"/>
</svg>
