<svg width="35" height="34" viewBox="0 0 35 34" fill="none" xmlns="http://www.w3.org/2000/svg">
<path d="M20 12C20.38 14.91 14.45 19.37 12 21C9 23 9.18 25.34 7 25C5.958 24.06 8.41 21.96 7 22C6 22 7.19 23.23 6 24C5 24 2 25 2 20C2 18 8 8 8 8C8 8 0.472505 1.525 0.958705 0.849999C1.445 0.174999 9.945 5.3 10 4.5C9.27 3.506 9.5 2.5 9.5 1.5C10.5 0.499999 12.5 4 12.5 4H14.5C14.5 4 15.28 2.008 17 0.999999C18 0.999999 18 4 18 4" stroke="#333333" stroke-width="1.5" stroke-linecap="round" stroke-linejoin="round"/>
<path fill-rule="evenodd" clip-rule="evenodd" d="M21.0686 4.50132C20.0939 4.26622 19.0703 4.10194 18 4L19 12C20.1494 20.333 17.3355 23.0514 14.7341 25.5647C12.8089 27.4246 11 29.1722 11 33H31.25C31.75 23.06 30.75 17.01 28.5 12.75C26.25 8.49 23.75 7 20.6 6L20.1 5.85L20.55 4.4L21.06 4.5C21.0629 4.50043 21.0657 4.50088 21.0686 4.50132ZM26.7542 7.1597C28.0536 8.27587 29.2461 9.758 30.25 11.66C32.62 16.15 34 22.94 33.5 33H34C34.3372 18.8357 31.7174 11.0406 26.7542 7.1597Z" fill="#333333"/>
<path d="M18 4L18.0711 3.25338C17.8446 3.2318 17.6205 3.31426 17.4619 3.47752C17.3034 3.64079 17.2276 3.86721 17.2558 4.09303L18 4ZM21.0686 4.50132L20.9552 5.2427C21.3524 5.30344 21.7269 5.04034 21.8045 4.64606C21.882 4.25179 21.6351 3.86644 21.2444 3.77222L21.0686 4.50132ZM19 12L18.2557 12.093L18.257 12.1025L19 12ZM14.7341 25.5647L15.2552 26.1041L14.7341 25.5647ZM11 33H10.25C10.25 33.1989 10.329 33.3897 10.4697 33.5303C10.6103 33.671 10.8011 33.75 11 33.75V33ZM31.25 33V33.75C31.6496 33.75 31.979 33.4367 31.9991 33.0377L31.25 33ZM20.6 6L20.827 5.28507L20.8155 5.28163L20.6 6ZM20.1 5.85L19.3837 5.62769C19.3244 5.81884 19.3439 6.02577 19.438 6.20244C19.532 6.37911 19.6928 6.51086 19.8845 6.56837L20.1 5.85ZM20.55 4.4L20.6943 3.66401C20.3184 3.59029 19.9473 3.81178 19.8337 4.17769L20.55 4.4ZM21.06 4.5L20.9157 5.23598C20.9263 5.23806 20.9369 5.23991 20.9476 5.24153L21.06 4.5ZM30.25 11.66L29.5867 12.0101L30.25 11.66ZM26.7542 7.1597L27.2162 6.56887C26.8952 6.31787 26.4325 6.3691 26.1742 6.68423C25.9159 6.99937 25.9564 7.46311 26.2655 7.72863L26.7542 7.1597ZM33.5 33L32.7509 32.9628C32.7407 33.1679 32.8151 33.3682 32.9567 33.517C33.0982 33.6658 33.2946 33.75 33.5 33.75V33ZM34 33V33.75C34.4073 33.75 34.7401 33.425 34.7498 33.0179L34 33ZM17.9289 4.74662C18.9686 4.84565 19.9568 5.00466 20.8927 5.23041L21.2444 3.77222C20.231 3.52777 19.172 3.35823 18.0711 3.25338L17.9289 4.74662ZM19.7442 11.907L18.7442 3.90697L17.2558 4.09303L18.2558 12.093L19.7442 11.907ZM15.2552 26.1041C16.5508 24.8524 18.01 23.4521 18.9614 21.2638C19.9164 19.0673 20.3305 16.157 19.743 11.8975L18.257 12.1025C18.8189 16.176 18.4007 18.7915 17.5858 20.6657C16.7673 22.5482 15.5189 23.7637 14.213 25.0253L15.2552 26.1041ZM11.75 33C11.75 31.2175 12.1676 29.9585 12.7872 28.932C13.4213 27.8815 14.2815 27.0448 15.2552 26.1041L14.213 25.0253C13.2615 25.9445 12.2547 26.9116 11.503 28.1568C10.7369 29.426 10.25 30.9547 10.25 33H11.75ZM31.25 32.25H11V33.75H31.25V32.25ZM27.8368 13.1003C29.9921 17.1809 30.9987 23.0672 30.5009 32.9623L31.9991 33.0377C32.5013 23.0528 31.5079 16.8391 29.1632 12.3997L27.8368 13.1003ZM20.3731 6.71484C21.8993 7.19937 23.2186 7.78712 24.4217 8.74035C25.6239 9.6928 26.7497 11.0419 27.8368 13.1003L29.1632 12.3997C28.0003 10.1981 26.7511 8.6722 25.3533 7.56465C23.9564 6.45788 22.4507 5.80063 20.8269 5.28516L20.3731 6.71484ZM19.8845 6.56837L20.3845 6.71837L20.8155 5.28163L20.3155 5.13163L19.8845 6.56837ZM19.8337 4.17769L19.3837 5.62769L20.8163 6.0723L21.2663 4.6223L19.8337 4.17769ZM21.2043 3.76402L20.6943 3.66401L20.4057 5.13598L20.9157 5.23598L21.2043 3.76402ZM21.1819 3.75994C21.1811 3.7598 21.1803 3.75967 21.1785 3.7594C21.177 3.75917 21.1748 3.75883 21.1724 3.75847L20.9476 5.24153C20.9508 5.24201 20.9485 5.24167 20.9552 5.2427L21.1819 3.75994ZM30.9133 11.3099C29.8696 9.33266 28.6203 7.77391 27.2429 6.59077L26.2655 7.72863C27.487 8.77782 28.6225 10.1833 29.5867 12.0101L30.9133 11.3099ZM34.2491 33.0372C34.7527 22.9052 33.37 15.9642 30.9133 11.3099L29.5867 12.0101C31.87 16.3358 33.2473 22.9748 32.7509 32.9628L34.2491 33.0372ZM34 32.25H33.5V33.75H34V32.25ZM26.2922 7.75052C30.9528 11.3948 33.5866 18.8535 33.2502 32.9821L34.7498 33.0179C35.0879 18.818 32.482 10.6864 27.2162 6.56887L26.2922 7.75052Z" fill="#333333"/>
<path fill-rule="evenodd" clip-rule="evenodd" d="M20 12C20.38 14.91 14.45 19.37 12 21C10.6771 21.8819 9.97253 22.83 9.41131 23.5852C8.69982 24.5426 8.21865 25.1901 7 25C6.46966 24.5216 6.84442 23.7426 7.15444 23.0983C7.45352 22.4767 7.69235 21.9804 7 22C6.5267 22 6.544 22.2755 6.56732 22.6474C6.59329 23.0613 6.62677 23.5944 6 24C5.87667 24 5.72296 24.0152 5.54821 24.0325C4.30575 24.1554 2 24.3835 2 20C2 18 8 8 8 8C8 8 0.472499 1.525 0.958705 0.849998C1.20819 0.503715 3.56674 1.68389 5.81216 2.80746C7.94366 3.87403 9.9732 4.88959 10 4.5C9.41101 3.69803 9.44696 2.88824 9.48284 2.0801V2.07983C9.49142 1.88642 9.5 1.6931 9.5 1.5C10.5 0.5 12.5 4 12.5 4H14.5C14.5 4 15.28 2.008 17 1C18 1 18 4 18 4L20 12ZM5.5 20.25C5.5 20.5815 5.36831 20.8995 5.13388 21.1339C4.89947 21.3683 4.58151 21.5 4.25 21.5C3.91848 21.5 3.60052 21.3683 3.36611 21.1339C3.13168 20.8995 3 20.5815 3 20.25C3 19.9185 3.13168 19.6005 3.36611 19.3661C3.60052 19.1317 3.91848 19 4.25 19C4.58151 19 4.89947 19.1317 5.13388 19.3661C5.36831 19.6005 5.5 19.9185 5.5 20.25ZM10.1775 12.3933C10.5915 12.1451 10.9917 11.7154 11.2901 11.1986C11.5885 10.6818 11.7606 10.1203 11.7685 9.63768C11.7765 9.15504 11.6197 8.79078 11.3326 8.62501C11.0455 8.45925 10.6516 8.50557 10.2376 8.75378C9.8236 9.00199 9.4234 9.43176 9.12503 9.94854C8.82666 10.4653 8.65457 11.0268 8.64657 11.5094C8.63861 11.9921 8.79544 12.3563 9.08255 12.5221C9.36962 12.6879 9.76351 12.6415 10.1775 12.3933Z" fill="#333333"/>
</svg>
