<svg
  version="1.0"
  xmlns="http://www.w3.org/2000/svg"
  width="192px"
  height="192px"
  viewBox="0 0 1024.000000 1024.000000"
  preserveAspectRatio="xMidYMid meet"
>
  <g
    transform="translate(0.000000,1024.000000) scale(0.100000,-0.100000)"
    fill="#ffffff"
    stroke="none"
  >
    <path d="M4215 7989 c-16 -5 -42 -7 -57 -5 -15 3 -30 1 -34 -5 -3 -6 -16 -9
  -27 -8 -12 1 -30 -1 -39 -5 -9 -4 -21 -5 -27 -2 -5 4 -13 1 -16 -5 -4 -5 -13
  -8 -21 -5 -7 3 -16 1 -19 -5 -4 -5 -12 -9 -18 -8 -7 1 -25 -3 -40 -9 -16 -7
  -33 -10 -38 -6 -5 3 -9 0 -9 -6 0 -7 -7 -10 -15 -6 -8 3 -15 1 -15 -5 0 -6 -6
  -9 -14 -6 -8 3 -16 2 -18 -3 -2 -4 -12 -10 -23 -12 -11 -1 -23 -7 -26 -11 -3
  -4 -16 -9 -27 -10 -12 -1 -22 -4 -22 -8 0 -7 -50 -23 -62 -21 -5 1 -8 -3 -8
  -9 0 -5 -4 -7 -10 -4 -5 3 -10 1 -10 -5 0 -6 -4 -8 -10 -5 -5 3 -10 1 -10 -5
  0 -6 -4 -8 -10 -5 -5 3 -10 1 -10 -5 0 -6 -4 -8 -10 -5 -5 3 -10 1 -10 -5 0
  -6 -4 -8 -10 -5 -5 3 -10 1 -10 -5 0 -6 -4 -8 -10 -5 -5 3 -10 1 -10 -6 0 -7
  -3 -10 -6 -6 -3 3 -15 -3 -27 -13 -11 -11 -24 -17 -29 -14 -4 3 -8 0 -8 -6 0
  -6 -4 -9 -9 -6 -5 3 -12 -1 -15 -10 -4 -9 -9 -14 -12 -11 -4 3 -15 -3 -27 -13
  -11 -11 -23 -17 -27 -15 -5 3 -11 -2 -14 -11 -4 -9 -9 -14 -12 -12 -3 3 -19
  -7 -37 -23 -17 -16 -33 -27 -35 -24 -3 2 -13 -6 -23 -18 -10 -12 -18 -18 -19
  -13 0 4 -9 -2 -20 -15 -10 -13 -19 -20 -20 -15 0 5 -9 -3 -21 -17 -11 -15 -23
  -26 -28 -24 -4 1 -22 -15 -40 -35 -18 -21 -36 -37 -39 -36 -9 3 -132 -121
  -132 -132 0 -4 -13 -19 -28 -32 -15 -12 -27 -26 -27 -30 0 -3 -9 -17 -20 -30
  -11 -13 -21 -25 -21 -28 0 -3 -6 -21 -14 -40 -7 -19 -12 -39 -11 -44 1 -4 -2
  -13 -6 -20 -10 -13 -9 -88 1 -105 4 -6 4 -15 1 -21 -3 -5 -1 -10 5 -10 6 0 9
  -4 6 -9 -3 -5 1 -12 9 -15 8 -3 14 -9 13 -13 -2 -4 0 -8 3 -8 4 0 16 -8 28
  -19 22 -20 148 -39 158 -23 3 4 11 6 18 3 8 -3 15 0 17 5 2 5 13 11 26 12 12
  0 22 5 22 10 0 4 5 5 10 2 6 -3 10 -1 10 5 0 6 5 8 10 5 6 -3 10 -1 10 5 0 6
  4 9 9 6 5 -3 12 1 15 10 3 8 10 12 16 9 5 -3 10 -1 10 5 0 6 4 9 9 6 5 -3 12
  1 15 10 3 8 10 12 16 9 5 -3 10 -1 10 5 0 6 4 9 9 6 5 -3 12 1 15 10 4 9 9 14
  12 11 3 -3 14 2 25 11 11 9 22 16 24 15 3 -2 14 6 25 17 12 12 25 18 29 15 5
  -2 12 2 15 11 3 8 10 12 16 9 5 -3 10 -1 10 6 0 7 3 9 7 6 3 -4 11 0 17 8 6 7
  18 15 26 17 8 2 23 11 34 20 10 10 23 15 28 12 4 -3 8 0 8 6 0 6 5 8 10 5 6
  -3 10 -1 10 5 0 6 4 9 9 6 5 -4 11 -2 13 3 5 13 119 71 129 65 5 -3 9 0 9 6 0
  6 5 8 10 5 6 -3 10 -1 10 5 0 7 6 10 14 7 8 -3 16 -1 18 4 2 5 19 11 38 12 19
  1 40 5 45 8 12 7 273 3 330 -5 22 -3 52 -6 67 -6 15 0 29 -4 33 -9 3 -6 12 -8
  20 -4 9 3 21 0 29 -6 7 -6 16 -8 19 -5 3 4 14 3 24 -1 10 -4 33 -9 52 -11 18
  -2 39 -8 45 -14 7 -5 16 -7 19 -4 3 3 11 3 18 -2 7 -4 28 -8 47 -10 20 -2 40
  -8 45 -13 5 -5 15 -7 22 -5 7 3 16 1 19 -5 4 -6 13 -8 20 -5 8 3 17 1 20 -5 4
  -6 13 -8 20 -5 8 3 17 1 20 -5 4 -6 13 -8 20 -5 8 3 17 1 20 -5 4 -6 13 -8 20
  -5 8 3 17 1 20 -5 4 -6 13 -8 20 -5 8 3 17 1 20 -5 4 -6 13 -8 20 -5 8 3 17 1
  20 -5 4 -6 13 -8 20 -5 8 3 17 1 20 -5 4 -6 13 -8 20 -5 8 3 17 1 20 -5 4 -6
  13 -8 20 -5 8 3 17 1 20 -5 4 -6 13 -8 20 -5 8 3 17 1 20 -4 3 -6 15 -8 26 -5
  11 3 20 1 20 -5 0 -6 8 -8 19 -5 10 3 22 0 25 -6 4 -5 13 -8 20 -5 8 3 17 1
  20 -4 3 -6 15 -8 26 -5 11 3 20 1 20 -5 0 -6 8 -8 19 -5 10 3 22 0 25 -6 4 -5
  13 -8 21 -4 9 3 21 0 29 -6 7 -6 16 -8 19 -5 3 4 14 3 24 -1 10 -4 27 -9 38
  -11 177 -26 321 -33 455 -19 36 4 85 8 110 10 25 1 53 6 63 10 26 11 21 -10
  -8 -33 -13 -11 -22 -22 -19 -25 3 -2 -6 -14 -20 -25 -14 -10 -23 -22 -20 -25
  3 -2 -6 -14 -20 -25 -15 -11 -26 -25 -26 -31 0 -6 -9 -16 -20 -23 -11 -7 -20
  -18 -20 -25 0 -7 -11 -20 -25 -29 -14 -9 -22 -20 -20 -25 3 -4 -6 -16 -20 -25
  -13 -9 -23 -20 -20 -24 3 -5 -6 -17 -20 -28 -13 -11 -22 -22 -19 -25 3 -2 -6
  -14 -20 -25 -14 -10 -23 -22 -20 -25 3 -2 -6 -14 -20 -25 -15 -11 -26 -25 -26
  -31 0 -6 -9 -16 -20 -23 -11 -7 -20 -18 -20 -25 0 -7 -11 -20 -25 -29 -14 -9
  -23 -20 -20 -24 3 -5 -6 -17 -20 -28 -13 -11 -22 -22 -19 -25 3 -2 -6 -14 -20
  -25 -14 -10 -23 -22 -20 -25 3 -2 -6 -14 -20 -25 -14 -10 -23 -22 -20 -25 3
  -2 -6 -14 -20 -25 -15 -11 -26 -25 -26 -31 0 -6 -11 -18 -25 -27 -14 -9 -23
  -20 -20 -24 3 -5 -6 -17 -20 -28 -13 -11 -22 -22 -19 -25 3 -2 -6 -14 -20 -25
  -14 -10 -23 -22 -20 -25 3 -3 -8 -15 -25 -28 -17 -12 -28 -26 -25 -30 2 -5 -7
  -16 -21 -25 -13 -9 -23 -20 -20 -24 3 -5 -6 -17 -20 -28 -13 -11 -22 -22 -19
  -25 3 -2 -6 -14 -20 -25 -15 -11 -26 -25 -26 -31 0 -6 -11 -18 -25 -27 -14 -9
  -23 -20 -20 -24 3 -5 -6 -17 -20 -28 -13 -11 -22 -22 -19 -25 3 -3 -8 -15 -25
  -28 -17 -12 -28 -26 -26 -30 3 -4 -6 -16 -20 -27 -13 -11 -22 -22 -19 -25 3
  -2 -6 -14 -20 -25 -14 -10 -23 -22 -20 -25 3 -3 -8 -15 -25 -28 -17 -12 -28
  -26 -26 -30 3 -4 -6 -16 -20 -27 -13 -11 -22 -22 -19 -25 3 -2 -6 -14 -20 -25
  -15 -11 -26 -25 -26 -31 0 -6 -11 -18 -25 -27 -14 -9 -23 -20 -20 -24 3 -5 -6
  -17 -20 -28 -13 -11 -22 -22 -19 -25 3 -3 -8 -15 -25 -28 -17 -12 -28 -26 -26
  -30 3 -4 -6 -16 -20 -27 -13 -11 -22 -22 -19 -25 3 -3 -8 -15 -25 -28 -17 -12
  -28 -26 -26 -30 3 -4 -6 -16 -20 -27 -13 -11 -22 -22 -19 -25 3 -3 -8 -15 -25
  -28 -17 -12 -28 -26 -26 -30 3 -4 -6 -16 -20 -27 -13 -11 -22 -22 -19 -25 3
  -3 -8 -15 -25 -28 -17 -12 -28 -26 -25 -30 2 -4 -9 -18 -25 -30 -17 -12 -28
  -26 -26 -30 3 -4 -6 -16 -20 -27 -14 -11 -25 -25 -25 -30 0 -6 -11 -19 -25
  -30 -13 -11 -22 -22 -19 -24 3 -3 -9 -17 -25 -31 -16 -13 -28 -27 -25 -30 3
  -2 -9 -16 -25 -30 -16 -13 -28 -27 -25 -30 3 -2 -9 -16 -26 -30 -16 -14 -30
  -30 -30 -36 0 -6 -13 -20 -30 -32 -16 -12 -27 -26 -25 -30 3 -4 -8 -18 -24
  -32 -17 -14 -28 -27 -25 -30 3 -2 -10 -17 -28 -32 -18 -16 -32 -32 -31 -36 2
  -4 -12 -20 -30 -35 -17 -15 -31 -31 -30 -35 2 -4 -12 -20 -30 -35 -17 -15 -31
  -31 -30 -35 2 -4 -12 -20 -30 -35 -17 -15 -31 -31 -30 -35 1 -4 -14 -22 -35
  -40 -20 -18 -36 -36 -35 -40 2 -4 -15 -23 -37 -42 -22 -19 -40 -39 -40 -45 0
  -5 -20 -28 -45 -50 -25 -22 -45 -44 -45 -48 0 -12 -319 -331 -324 -324 -2 3
  -15 -10 -30 -28 -16 -17 -31 -30 -36 -27 -4 3 -15 -7 -25 -21 -9 -14 -19 -23
  -22 -20 -4 3 -13 -3 -20 -14 -8 -11 -18 -18 -23 -15 -4 3 -10 -2 -14 -10 -3
  -8 -12 -15 -20 -15 -7 0 -17 -7 -20 -16 -3 -8 -10 -13 -15 -10 -5 3 -12 -1
  -15 -10 -4 -9 -9 -14 -12 -12 -3 3 -23 -11 -45 -31 -23 -20 -45 -36 -49 -36
  -5 0 -18 -12 -30 -28 -12 -15 -25 -25 -29 -22 -4 2 -18 -9 -30 -25 -12 -17
  -26 -30 -32 -30 -6 0 -22 -14 -36 -30 -13 -17 -28 -28 -32 -25 -4 2 -18 -9
  -30 -25 -12 -17 -26 -30 -32 -30 -6 0 -22 -14 -36 -30 -14 -17 -28 -29 -30
  -26 -3 3 -16 -8 -30 -25 -14 -16 -28 -27 -32 -24 -4 2 -18 -9 -30 -26 -13 -17
  -25 -28 -28 -25 -3 3 -14 -6 -25 -19 -11 -14 -24 -25 -30 -25 -5 0 -19 -11
  -30 -25 -11 -14 -23 -24 -26 -22 -6 2 -82 -71 -89 -84 -10 -22 -23 -63 -23
  -74 0 -8 -4 -16 -9 -20 -14 -8 -3 -117 16 -165 6 -14 9 -28 6 -32 -2 -5 1 -8
  8 -8 7 0 10 -3 6 -6 -3 -4 1 -13 9 -21 8 -8 12 -18 9 -23 -3 -4 2 -11 11 -14
  9 -4 15 -9 12 -11 -7 -7 85 -101 95 -97 4 2 10 -4 13 -12 3 -9 10 -13 15 -10
  5 3 9 1 9 -3 0 -5 12 -10 26 -11 15 -1 32 -6 38 -10 16 -12 66 -13 66 -2 0 6
  4 10 9 10 5 0 20 4 33 9 13 5 28 9 33 11 6 1 14 8 18 16 5 8 12 12 17 9 4 -3
  11 2 14 11 3 8 10 13 15 10 5 -3 11 1 15 9 3 8 12 15 20 15 7 0 17 7 20 16 3
  8 10 13 15 10 5 -3 12 1 15 10 4 9 9 14 12 12 3 -3 19 7 36 23 17 15 35 26 39
  24 4 -3 10 2 13 11 3 8 10 13 15 10 5 -3 11 1 15 9 3 8 12 15 20 15 7 0 17 7
  20 16 3 8 10 13 15 10 5 -3 12 1 15 10 3 8 10 13 15 10 5 -3 11 1 15 9 3 8 12
  15 20 15 7 0 17 7 20 16 3 8 10 13 15 10 5 -3 12 1 15 10 4 9 9 14 13 10 3 -3
  13 3 20 14 8 11 18 18 23 15 4 -3 11 2 14 11 3 8 10 13 15 10 5 -3 12 1 15 10
  4 9 9 14 12 12 3 -3 19 7 36 23 17 15 35 26 39 24 4 -3 10 2 13 11 3 8 10 13
  15 10 5 -3 12 1 15 10 3 8 10 12 16 9 5 -3 10 -1 10 6 0 7 3 10 6 6 4 -3 13 1
  21 9 8 8 19 12 24 9 5 -4 9 -1 9 5 0 6 4 9 9 6 5 -4 11 -2 13 3 1 5 12 11 23
  13 11 1 22 6 25 9 9 11 102 39 111 33 5 -3 9 0 9 6 0 7 7 10 15 7 8 -4 17 -2
  21 4 3 6 12 8 20 5 7 -3 16 -1 20 5 3 6 12 8 20 5 7 -3 16 -1 19 4 3 5 16 10
  28 10 12 0 40 2 62 5 22 3 101 6 175 6 193 0 199 -1 205 -10 3 -5 14 -7 24 -4
  10 3 22 0 25 -6 4 -5 13 -8 20 -5 8 3 17 0 21 -5 3 -6 10 -9 15 -6 6 4 92 -21
  140 -42 8 -3 24 -8 35 -10 11 -2 22 -8 23 -13 2 -6 8 -8 13 -4 5 3 9 0 9 -7 0
  -7 3 -10 6 -6 8 8 64 -13 64 -25 0 -5 4 -7 9 -3 5 3 16 -1 24 -9 8 -8 17 -12
  21 -9 3 4 6 1 6 -6 0 -7 5 -9 10 -6 6 3 10 1 10 -5 0 -6 5 -8 10 -5 6 3 10 1
  10 -6 0 -7 3 -10 6 -6 9 8 64 -21 64 -34 0 -6 5 -7 10 -4 6 3 10 1 10 -5 0 -6
  5 -8 10 -5 6 3 13 -1 16 -9 3 -9 10 -13 15 -11 4 3 17 -3 29 -15 11 -11 22
  -20 25 -20 11 1 65 -35 65 -43 0 -4 5 -5 10 -2 6 3 13 -1 16 -9 3 -9 10 -13
  15 -10 5 3 12 -2 15 -10 3 -9 9 -14 14 -11 4 2 16 -4 27 -15 12 -10 23 -16 27
  -13 3 3 8 -2 12 -11 3 -9 9 -14 14 -11 4 2 17 -5 28 -16 12 -10 24 -18 26 -17
  3 2 14 -5 26 -14 11 -10 20 -16 20 -13 0 6 122 -54 130 -64 3 -3 14 -8 25 -9
  11 -2 22 -7 25 -10 3 -4 21 -9 40 -10 19 -2 40 -7 45 -10 21 -15 279 0 435 24
  19 3 44 7 55 8 11 2 28 7 37 11 9 4 22 4 28 0 5 -3 10 -1 10 6 0 6 8 9 20 6
  11 -3 23 -1 26 5 3 5 12 7 20 4 7 -3 16 -1 20 5 3 6 12 8 20 5 8 -3 14 -2 14
  3 0 9 63 26 88 24 6 0 12 4 12 9 0 6 7 8 15 4 8 -3 15 -2 15 3 0 8 41 24 65
  25 6 1 12 4 15 8 3 3 14 8 25 10 11 1 26 9 33 15 12 11 27 15 48 12 4 0 10 3
  13 8 8 12 204 108 214 105 4 -1 7 3 7 10 0 6 3 8 7 5 3 -4 11 0 17 8 6 7 18
  15 26 17 8 2 23 11 34 20 10 10 22 15 26 13 5 -3 11 2 14 11 3 8 10 13 15 10
  5 -4 11 -3 13 1 5 13 78 65 78 56 0 -4 5 0 11 10 6 9 14 15 19 12 4 -3 10 2
  14 10 3 8 12 15 20 15 7 0 16 7 20 15 3 8 11 15 18 15 7 0 19 9 26 21 7 12 16
  18 19 15 3 -3 14 6 25 19 10 14 22 24 26 22 4 -1 25 17 46 41 21 23 42 42 45
  42 11 0 265 254 263 262 -1 4 12 18 28 31 16 14 27 27 24 30 -3 2 9 16 25 30
  16 13 28 27 25 30 -3 2 9 16 25 30 16 13 27 27 24 31 -3 3 2 8 11 12 9 3 16
  13 16 20 0 8 7 17 15 20 8 4 13 10 10 14 -3 5 4 15 15 23 11 7 17 17 14 20 -4
  4 1 9 10 13 9 3 16 13 16 20 0 8 7 17 15 20 8 4 12 10 9 15 -3 5 2 12 10 15 9
  3 13 10 10 15 -3 5 2 12 10 15 9 3 14 9 11 14 -2 4 4 16 15 27 10 12 16 23 13
  27 -3 3 2 8 11 12 9 3 13 10 10 15 -3 5 2 12 10 15 9 3 14 9 11 14 -2 4 4 16
  15 27 10 12 16 24 13 27 -4 3 0 6 7 6 7 0 10 3 7 6 -8 8 24 64 36 64 4 0 5 5
  2 10 -3 5 -1 10 6 10 7 0 9 3 6 6 -8 8 24 64 36 64 4 0 5 5 2 10 -3 6 -1 10 5
  10 6 0 8 5 5 10 -3 6 -1 10 5 10 6 0 8 5 5 10 -3 6 -1 10 4 10 6 0 10 3 9 8
  -5 13 33 102 43 102 6 0 7 5 4 10 -3 6 -1 10 5 10 6 0 8 5 5 10 -3 6 -1 10 5
  10 6 0 8 5 5 10 -3 6 -2 10 2 10 5 0 9 10 10 22 1 11 6 24 10 27 4 3 10 15 11
  26 2 11 7 22 10 25 4 3 9 14 10 25 2 11 7 22 10 25 4 3 9 14 10 25 2 11 7 22
  10 25 4 3 9 14 10 25 2 11 9 23 15 27 7 4 8 8 3 8 -5 0 -3 6 3 14 8 10 7 22
  -4 50 -8 20 -12 36 -8 36 4 0 -2 7 -13 15 -10 8 -15 15 -10 15 5 0 -3 9 -18
  21 -14 11 -24 24 -21 29 5 8 -15 28 -28 28 -5 0 -26 16 -47 35 -22 19 -41 32
  -45 29 -3 -3 -5 0 -5 7 0 7 -4 9 -10 6 -5 -3 -10 -1 -10 5 0 6 -4 8 -10 5 -5
  -3 -10 -1 -10 5 0 6 -4 8 -10 5 -5 -3 -10 -1 -10 5 0 6 -4 9 -8 6 -5 -3 -20 1
  -35 9 -14 7 -28 11 -31 8 -2 -3 -10 -2 -17 3 -18 11 -140 8 -170 -4 -15 -6
  -35 -12 -45 -14 -11 -2 -30 -13 -43 -25 -14 -12 -28 -20 -31 -18 -8 5 -37 -24
  -41 -40 -3 -14 -53 -89 -62 -93 -4 -2 -5 -8 -1 -13 3 -5 0 -9 -7 -9 -7 0 -9
  -3 -6 -6 8 -8 -24 -64 -36 -64 -4 0 -5 -4 -2 -10 3 -5 1 -10 -4 -10 -6 0 -10
  -3 -10 -7 3 -18 -2 -31 -21 -51 -12 -12 -18 -22 -15 -22 3 0 -2 -13 -12 -30
  -9 -16 -21 -30 -26 -30 -4 0 -6 -4 -3 -8 3 -5 -2 -18 -12 -28 -9 -11 -18 -26
  -20 -34 -2 -8 -10 -20 -17 -26 -8 -6 -12 -14 -8 -17 3 -4 1 -7 -6 -7 -7 0 -9
  -5 -6 -10 3 -6 -1 -13 -9 -16 -9 -3 -14 -9 -11 -14 2 -4 -4 -16 -15 -27 -10
  -12 -16 -23 -13 -27 3 -3 -2 -8 -11 -12 -9 -3 -13 -10 -11 -15 3 -4 -3 -17
  -14 -28 -11 -11 -17 -22 -14 -25 3 -3 -2 -8 -11 -12 -9 -3 -13 -10 -10 -15 3
  -5 -2 -12 -10 -15 -9 -3 -13 -10 -10 -15 3 -5 -2 -12 -10 -15 -9 -3 -13 -10
  -10 -15 3 -5 -2 -12 -10 -15 -9 -3 -13 -10 -11 -15 3 -4 -3 -14 -15 -21 -11
  -7 -20 -19 -20 -26 0 -7 -7 -15 -15 -18 -8 -4 -15 -12 -15 -20 0 -7 -9 -19
  -20 -27 -11 -8 -17 -16 -15 -19 3 -3 -9 -18 -27 -33 -18 -15 -33 -31 -33 -34
  0 -10 -224 -231 -234 -231 -5 0 -16 -12 -26 -26 -9 -14 -19 -23 -22 -20 -3 3
  -14 -5 -24 -17 -10 -12 -18 -18 -19 -12 0 5 -7 -1 -16 -13 -8 -12 -19 -20 -24
  -17 -4 3 -11 -2 -14 -11 -4 -9 -9 -14 -12 -11 -3 3 -14 -3 -25 -14 -11 -11
  -24 -17 -28 -14 -5 2 -12 -2 -15 -11 -3 -8 -10 -12 -16 -9 -5 3 -10 2 -10 -3
  0 -12 -140 -86 -140 -75 0 4 -4 3 -8 -4 -4 -6 -16 -13 -27 -15 -11 -1 -26 -9
  -34 -16 -7 -7 -20 -11 -27 -8 -8 3 -14 1 -14 -5 0 -6 -7 -9 -15 -5 -8 3 -15 1
  -15 -5 0 -6 -6 -9 -14 -6 -8 3 -16 2 -18 -3 -2 -5 -17 -11 -33 -13 -17 -2 -37
  -7 -44 -11 -7 -4 -15 -5 -18 -2 -3 3 -12 1 -19 -5 -8 -6 -20 -9 -29 -6 -8 4
  -17 2 -20 -4 -4 -5 -18 -9 -33 -10 -15 0 -47 -2 -72 -5 -125 -13 -281 -16
  -295 -4 -8 6 -19 9 -25 5 -14 -9 -150 24 -150 36 0 4 -7 6 -15 3 -8 -4 -15 -2
  -15 3 0 5 -10 10 -22 10 -13 1 -24 7 -26 13 -2 5 -8 8 -13 4 -5 -3 -9 0 -9 7
  0 7 -3 10 -6 6 -8 -8 -64 13 -64 25 0 5 -4 6 -10 3 -5 -3 -10 -1 -10 4 0 6 -3
  10 -7 9 -13 -4 -73 24 -73 34 0 5 -4 6 -10 3 -5 -3 -10 -1 -10 5 0 6 -4 8 -10
  5 -5 -3 -10 -1 -10 5 0 6 -4 8 -10 5 -5 -3 -10 -1 -10 5 0 6 -4 8 -10 5 -6 -3
  -10 -1 -10 5 0 6 -4 8 -10 5 -5 -3 -10 -1 -10 5 0 6 -4 8 -10 5 -6 -3 -10 -1
  -10 5 0 6 -4 8 -10 5 -5 -3 -10 -1 -10 4 0 6 -4 10 -8 8 -12 -3 -82 36 -82 46
  0 4 -4 5 -10 2 -5 -3 -10 -1 -10 5 0 6 -4 8 -10 5 -5 -3 -10 -1 -10 6 0 7 -3
  9 -6 6 -8 -8 -64 24 -64 36 0 4 -4 5 -10 2 -5 -3 -10 -1 -10 5 0 6 -4 8 -10 5
  -6 -3 -10 -1 -10 6 0 7 -3 10 -6 6 -7 -7 -125 51 -135 66 -3 5 -10 8 -15 7
  -13 -2 -148 44 -152 52 -2 4 -9 5 -17 2 -7 -3 -16 -1 -20 5 -3 6 -1 11 5 11 6
  0 9 4 6 9 -4 5 9 22 26 37 18 15 32 31 31 35 -2 5 10 18 27 30 16 12 27 26 25
  30 -3 4 8 19 25 32 16 14 30 30 30 36 0 6 13 20 30 32 16 12 27 26 25 30 -3 4
  8 18 24 32 17 14 28 27 25 30 -3 2 10 17 28 32 18 16 32 32 31 36 -2 5 10 18
  27 30 16 12 27 26 24 30 -2 4 9 18 25 30 17 12 28 26 25 30 -2 4 9 18 25 30
  17 12 28 26 25 30 -2 4 9 18 25 30 17 12 28 26 25 30 -2 4 9 18 25 30 17 12
  28 26 25 30 -2 4 9 18 25 30 17 12 28 26 25 30 -2 4 9 18 25 30 17 12 28 26
  26 30 -3 4 6 16 20 27 14 11 25 25 25 30 0 6 11 19 25 30 13 11 22 22 19 24
  -3 3 9 17 25 31 16 13 28 27 25 30 -3 3 8 15 25 28 17 12 28 26 25 30 -2 4 9
  18 25 30 17 12 28 26 25 30 -2 4 9 18 25 30 17 12 28 26 25 30 -2 4 9 18 25
  30 17 12 28 26 25 30 -2 4 9 18 25 30 17 12 28 26 25 30 -2 4 9 18 25 30 17
  12 28 26 25 30 -2 4 9 18 25 30 17 12 28 26 25 30 -2 4 9 18 25 30 17 12 28
  26 25 30 -2 4 9 18 25 30 17 12 28 26 25 30 -2 4 9 18 25 30 17 12 28 26 25
  30 -2 4 9 18 25 30 17 12 28 26 26 30 -3 4 8 19 25 32 16 14 30 30 30 36 0 6
  13 20 30 32 16 12 27 26 25 30 -3 4 8 18 24 32 17 14 28 27 25 30 -3 2 10 17
  28 32 18 16 32 32 31 36 -2 5 10 18 27 30 16 12 27 26 25 30 -3 4 12 22 33 40
  20 18 36 36 35 40 -2 4 12 20 30 35 17 15 31 31 30 35 -1 4 14 22 35 40 20 18
  36 36 35 40 -2 4 12 20 30 35 17 15 31 31 30 35 -1 4 14 22 35 40 20 18 36 36
  35 41 -2 4 17 24 42 44 24 21 42 41 39 45 -2 4 16 25 40 45 25 21 43 41 41 45
  -3 4 19 28 47 55 29 26 52 50 51 55 -2 4 27 34 62 67 36 33 65 64 65 70 0 6
  42 50 94 98 52 48 93 91 91 94 -5 8 79 92 91 92 5 0 35 29 67 64 32 35 64 64
  70 64 7 0 34 25 60 55 27 31 52 53 56 50 5 -2 22 13 40 35 18 22 37 40 42 40
  6 0 22 13 36 30 13 17 29 30 35 30 5 0 21 14 35 30 14 17 28 29 31 26 2 -3 14
  6 24 20 11 14 23 23 25 20 3 -3 14 5 24 17 10 12 18 18 19 12 0 -5 7 1 16 13
  8 12 21 22 27 22 7 0 18 9 25 21 7 12 16 19 19 16 3 -3 16 7 30 24 14 16 28
  27 33 24 4 -2 15 4 25 15 10 11 14 20 9 20 -5 1 1 9 13 19 12 10 19 21 16 25
  -3 3 2 8 11 12 9 3 13 10 10 15 -3 5 0 9 6 9 6 0 8 5 5 10 -3 6 -1 10 5 10 6
  0 9 3 7 8 -3 4 0 18 5 32 12 32 16 150 4 150 -4 0 -6 7 -2 15 3 8 1 15 -4 15
  -8 0 -21 28 -19 40 3 9 -86 96 -94 92 -4 -2 -10 4 -13 12 -3 9 -10 13 -15 10
  -5 -3 -9 0 -9 6 0 6 -4 8 -10 5 -5 -3 -10 -2 -10 4 0 6 -7 8 -15 5 -8 -4 -15
  -1 -15 6 0 6 -4 9 -9 6 -5 -3 -23 -1 -41 5 -24 9 -41 9 -71 -1 -22 -7 -46 -13
  -54 -13 -8 0 -15 -5 -15 -10 0 -6 -3 -8 -6 -4 -3 3 -18 -5 -32 -18 -14 -13
  -29 -22 -33 -20 -4 3 -10 -2 -13 -11 -3 -8 -10 -13 -15 -10 -5 3 -12 -1 -15
  -10 -4 -9 -9 -14 -12 -11 -3 3 -14 -3 -25 -14 -11 -11 -24 -17 -29 -14 -6 4
  -10 1 -10 -5 0 -6 -4 -8 -10 -5 -5 3 -10 1 -10 -5 0 -6 -4 -8 -10 -5 -5 3 -10
  1 -10 -5 0 -6 -4 -9 -9 -6 -5 4 -11 2 -13 -3 -1 -5 -12 -11 -23 -13 -11 -1
  -22 -6 -25 -10 -3 -4 -15 -9 -25 -11 -11 -1 -26 -6 -32 -10 -7 -5 -17 -5 -23
  -2 -5 3 -10 1 -10 -6 0 -6 -8 -9 -20 -6 -11 3 -20 1 -20 -5 0 -6 -9 -8 -20 -5
  -11 3 -23 1 -26 -5 -3 -5 -17 -7 -29 -4 -13 3 -26 2 -30 -4 -3 -5 -18 -9 -33
  -10 -15 0 -52 -3 -82 -6 -103 -9 -580 -12 -585 -4 -3 5 -12 7 -20 3 -8 -3 -23
  -2 -32 2 -10 5 -28 7 -40 6 -11 -1 -24 2 -27 7 -3 6 -15 8 -25 5 -10 -3 -22 0
  -25 6 -4 5 -13 8 -20 5 -8 -3 -17 -1 -20 4 -3 6 -15 8 -26 5 -11 -3 -20 -1
  -20 5 0 6 -9 8 -20 5 -12 -3 -20 0 -20 6 0 7 -4 10 -9 7 -12 -8 -111 15 -111
  25 0 4 -9 5 -20 2 -11 -3 -20 0 -20 6 0 5 -6 8 -14 5 -8 -3 -17 -1 -20 5 -4 6
  -13 8 -20 5 -8 -3 -17 -1 -20 5 -4 6 -13 8 -20 5 -8 -3 -17 -1 -20 5 -4 6 -13
  8 -20 5 -8 -3 -17 -1 -20 5 -4 6 -13 8 -20 5 -8 -3 -17 -1 -20 5 -4 6 -13 8
  -20 5 -8 -3 -17 -1 -20 5 -4 6 -13 8 -20 5 -8 -3 -17 -1 -20 5 -4 6 -13 8 -20
  5 -8 -3 -17 -1 -20 5 -4 6 -13 8 -20 5 -8 -3 -17 -1 -20 5 -4 6 -13 8 -20 5
  -8 -3 -17 -1 -20 4 -3 6 -15 8 -26 5 -11 -3 -20 -1 -20 3 0 5 -13 9 -29 10
  -16 1 -37 5 -47 9 -11 4 -27 7 -36 6 -10 -1 -18 2 -18 7 0 6 -8 8 -19 5 -10
  -3 -22 0 -25 5 -3 6 -15 8 -25 5 -10 -3 -22 0 -25 5 -3 6 -15 8 -25 5 -10 -3
  -22 0 -25 5 -3 6 -15 8 -25 5 -10 -3 -22 0 -25 5 -3 6 -15 8 -25 5 -10 -3 -22
  0 -25 6 -4 5 -13 8 -21 4 -8 -3 -23 -2 -32 2 -10 5 -28 7 -40 6 -11 -1 -24 2
  -27 8 -4 6 -13 8 -21 4 -8 -3 -23 -2 -32 2 -20 8 -64 14 -105 15 -15 0 -30 4
  -33 10 -3 6 -17 7 -30 4 -13 -3 -30 -2 -37 2 -7 5 -29 10 -48 11 -129 9 -189
  10 -215 2z"
    />
  </g>
</svg>
